<svg width="371" height="100" viewBox="0 0 371 100" fill="none" xmlns="http://www.w3.org/2000/svg">
<rect width="371" height="99.5366" rx="13.8748" fill="white"/>
<path d="M69.7898 50H63.9783L70.5259 30.1635H77.8871L84.4347 50H78.6233L74.284 35.6263H74.129L69.7898 50ZM68.705 42.1739H79.6306V46.2032H68.705V42.1739ZM92.3148 41.6315V50H86.9683V35.1226H92.0436V37.9509H92.1986C92.5214 37.0081 93.0897 36.2688 93.9033 35.7328C94.7234 35.1969 95.679 34.9289 96.7703 34.9289C97.8228 34.9289 98.7365 35.171 99.5114 35.6553C100.293 36.1332 100.896 36.7918 101.323 37.6312C101.755 38.4707 101.968 39.4296 101.962 40.5079V50H96.6153V41.6315C96.6218 40.8953 96.4345 40.3174 96.0535 39.8977C95.679 39.478 95.156 39.2681 94.4844 39.2681C94.0453 39.2681 93.6611 39.365 93.3318 39.5587C93.009 39.746 92.7604 40.0172 92.586 40.3723C92.4117 40.721 92.3213 41.1407 92.3148 41.6315ZM112.314 50.2712C110.7 50.2712 109.318 49.9516 108.169 49.3123C107.019 48.6666 106.138 47.769 105.525 46.6197C104.911 45.4638 104.604 44.1239 104.604 42.6C104.604 41.0761 104.911 39.7395 105.525 38.5901C106.138 37.4343 107.019 36.5367 108.169 35.8975C109.318 35.2517 110.7 34.9289 112.314 34.9289C113.929 34.9289 115.31 35.2517 116.46 35.8975C117.609 36.5367 118.491 37.4343 119.104 38.5901C119.717 39.7395 120.024 41.0761 120.024 42.6C120.024 44.1239 119.717 45.4638 119.104 46.6197C118.491 47.769 117.609 48.6666 116.46 49.3123C115.31 49.9516 113.929 50.2712 112.314 50.2712ZM112.353 46.3194C112.805 46.3194 113.196 46.1676 113.525 45.8642C113.854 45.5607 114.109 45.128 114.29 44.5663C114.471 44.0045 114.561 43.3362 114.561 42.5613C114.561 41.78 114.471 41.1117 114.29 40.5563C114.109 39.9946 113.854 39.5619 113.525 39.2584C113.196 38.955 112.805 38.8032 112.353 38.8032C111.875 38.8032 111.465 38.955 111.123 39.2584C110.781 39.5619 110.519 39.9946 110.338 40.5563C110.158 41.1117 110.067 41.78 110.067 42.5613C110.067 43.3362 110.158 44.0045 110.338 44.5663C110.519 45.128 110.781 45.5607 111.123 45.8642C111.465 46.1676 111.875 46.3194 112.353 46.3194ZM128.086 41.6315V50H122.739V35.1226H127.815V37.9509H127.97C128.292 37.0081 128.861 36.2688 129.674 35.7328C130.494 35.1969 131.45 34.9289 132.541 34.9289C133.594 34.9289 134.508 35.171 135.282 35.6553C136.064 36.1332 136.667 36.7918 137.094 37.6312C137.526 38.4707 137.739 39.4296 137.733 40.5079V50H132.386V41.6315C132.393 40.8953 132.206 40.3174 131.825 39.8977C131.45 39.478 130.927 39.2681 130.255 39.2681C129.816 39.2681 129.432 39.365 129.103 39.5587C128.78 39.746 128.531 40.0172 128.357 40.3723C128.183 40.721 128.092 41.1407 128.086 41.6315ZM143.64 55.579C143.026 55.579 142.442 55.5306 141.886 55.4337C141.331 55.3433 140.844 55.2174 140.424 55.056L141.586 51.2592C142.025 51.4141 142.426 51.5142 142.787 51.5594C143.155 51.6046 143.468 51.5788 143.727 51.4819C143.991 51.3851 144.182 51.201 144.298 50.9298L144.414 50.6586L139.184 35.1226H144.763L147.165 45.4283H147.32L149.761 35.1226H155.379L149.955 51.2398C149.683 52.0598 149.29 52.796 148.773 53.4481C148.263 54.1068 147.591 54.6266 146.758 55.0076C145.925 55.3885 144.886 55.579 143.64 55.579ZM157.445 50V35.1226H162.52V37.9509H162.675C162.985 37.021 163.515 36.2849 164.264 35.7425C165.013 35.2001 165.904 34.9289 166.937 34.9289C167.983 34.9289 168.884 35.2065 169.639 35.7619C170.395 36.3107 170.85 37.0404 171.005 37.9509H171.16C171.412 37.0404 171.948 36.3107 172.768 35.7619C173.588 35.2065 174.55 34.9289 175.654 34.9289C177.081 34.9289 178.237 35.3873 179.122 36.3043C180.013 37.2212 180.458 38.4416 180.458 39.9655V50H175.112V41.3215C175.112 40.6693 174.947 40.1592 174.618 39.7912C174.289 39.4166 173.846 39.2294 173.291 39.2294C172.742 39.2294 172.306 39.4166 171.983 39.7912C171.667 40.1592 171.509 40.6693 171.509 41.3215V50H166.395V41.3215C166.395 40.6693 166.23 40.1592 165.901 39.7912C165.571 39.4166 165.129 39.2294 164.574 39.2294C164.206 39.2294 163.889 39.3133 163.624 39.4812C163.36 39.6491 163.153 39.8912 163.005 40.2076C162.862 40.5176 162.791 40.8889 162.791 41.3215V50H157.445ZM190.808 50.2712C189.194 50.2712 187.812 49.9516 186.663 49.3123C185.513 48.6666 184.632 47.769 184.019 46.6197C183.405 45.4638 183.098 44.1239 183.098 42.6C183.098 41.0761 183.405 39.7395 184.019 38.5901C184.632 37.4343 185.513 36.5367 186.663 35.8975C187.812 35.2517 189.194 34.9289 190.808 34.9289C192.423 34.9289 193.804 35.2517 194.954 35.8975C196.103 36.5367 196.985 37.4343 197.598 38.5901C198.212 39.7395 198.518 41.0761 198.518 42.6C198.518 44.1239 198.212 45.4638 197.598 46.6197C196.985 47.769 196.103 48.6666 194.954 49.3123C193.804 49.9516 192.423 50.2712 190.808 50.2712ZM190.847 46.3194C191.299 46.3194 191.69 46.1676 192.019 45.8642C192.348 45.5607 192.603 45.128 192.784 44.5663C192.965 44.0045 193.055 43.3362 193.055 42.5613C193.055 41.78 192.965 41.1117 192.784 40.5563C192.603 39.9946 192.348 39.5619 192.019 39.2584C191.69 38.955 191.299 38.8032 190.847 38.8032C190.369 38.8032 189.959 38.955 189.617 39.2584C189.275 39.5619 189.013 39.9946 188.832 40.5563C188.652 41.1117 188.561 41.78 188.561 42.5613C188.561 43.3362 188.652 44.0045 188.832 44.5663C189.013 45.128 189.275 45.5607 189.617 45.8642C189.959 46.1676 190.369 46.3194 190.847 46.3194ZM210.88 43.4911V35.1226H216.227V50H211.152V47.1717H210.997C210.674 48.121 210.109 48.8635 209.302 49.3995C208.494 49.929 207.536 50.1937 206.425 50.1937C205.385 50.1937 204.475 49.9548 203.694 49.477C202.919 48.9991 202.315 48.3405 201.882 47.5011C201.456 46.6616 201.24 45.6995 201.233 44.6147V35.1226H206.58V43.4911C206.586 44.2273 206.774 44.8052 207.142 45.2249C207.516 45.6446 208.039 45.8545 208.711 45.8545C209.156 45.8545 209.541 45.7608 209.863 45.5736C210.193 45.3799 210.445 45.1087 210.619 44.76C210.8 44.4048 210.887 43.9819 210.88 43.4911ZM233.091 39.9655H228.17C228.144 39.662 228.038 39.4005 227.851 39.181C227.663 38.9614 227.421 38.7935 227.124 38.6773C226.834 38.5546 226.511 38.4933 226.156 38.4933C225.697 38.4933 225.303 38.5772 224.974 38.7451C224.645 38.913 224.483 39.1519 224.49 39.4618C224.483 39.6814 224.577 39.8848 224.771 40.072C224.971 40.2593 225.355 40.4046 225.923 40.5079L228.945 41.0503C230.469 41.328 231.602 41.7961 232.345 42.4548C233.094 43.1069 233.472 43.9819 233.478 45.0796C233.472 46.1386 233.155 47.0587 232.529 47.8401C231.909 48.6149 231.06 49.2154 229.982 49.6416C228.91 50.0613 227.686 50.2712 226.311 50.2712C224.038 50.2712 222.259 49.8063 220.974 48.8764C219.695 47.9466 218.982 46.7197 218.833 45.1958H224.141C224.212 45.6672 224.444 46.032 224.838 46.2903C225.239 46.5422 225.742 46.6681 226.349 46.6681C226.84 46.6681 227.244 46.5841 227.56 46.4163C227.883 46.2484 228.048 46.0094 228.054 45.6995C228.048 45.4154 227.906 45.1894 227.628 45.0215C227.357 44.8536 226.93 44.718 226.349 44.6147L223.715 44.1498C222.197 43.885 221.061 43.3814 220.305 42.6388C219.55 41.8962 219.175 40.9405 219.182 39.7718C219.175 38.7386 219.447 37.8637 219.995 37.1469C220.551 36.4237 221.342 35.8749 222.368 35.5003C223.402 35.1194 224.625 34.9289 226.039 34.9289C228.19 34.9289 229.885 35.3744 231.124 36.2655C232.371 37.1566 233.026 38.3899 233.091 39.9655ZM260.493 37.6022H255.03C254.992 37.1502 254.888 36.7401 254.72 36.3721C254.559 36.004 254.333 35.6876 254.042 35.4229C253.758 35.1517 253.413 34.945 253.006 34.803C252.599 34.6545 252.138 34.5802 251.621 34.5802C250.717 34.5802 249.952 34.7997 249.325 35.2388C248.706 35.6779 248.234 36.3075 247.911 37.1276C247.595 37.9476 247.437 38.9324 247.437 40.0817C247.437 41.2957 247.598 42.3127 247.921 43.1328C248.25 43.9464 248.725 44.5598 249.345 44.9731C249.965 45.3799 250.71 45.5833 251.582 45.5833C252.079 45.5833 252.525 45.5219 252.919 45.3992C253.313 45.2701 253.655 45.0861 253.946 44.8472C254.236 44.6082 254.472 44.3209 254.653 43.9851C254.84 43.6429 254.966 43.2587 255.03 42.8325L260.493 42.8712C260.429 43.7107 260.193 44.5663 259.786 45.438C259.379 46.3033 258.801 47.1039 258.052 47.8401C257.31 48.5697 256.39 49.1573 255.292 49.6029C254.194 50.0484 252.919 50.2712 251.466 50.2712C249.645 50.2712 248.011 49.8805 246.565 49.0992C245.125 48.3179 243.985 47.1685 243.146 45.6511C242.313 44.1336 241.896 42.2772 241.896 40.0817C241.896 37.8734 242.323 36.0137 243.175 34.5027C244.027 32.9853 245.177 31.8391 246.623 31.0642C248.07 30.2829 249.684 29.8923 251.466 29.8923C252.719 29.8923 253.871 30.0634 254.924 30.4056C255.976 30.7478 256.9 31.2483 257.694 31.9069C258.488 32.5591 259.127 33.363 259.612 34.3187C260.096 35.2743 260.39 36.3688 260.493 37.6022ZM268.906 41.6315V50H263.559V30.1635H268.712V37.9509H268.867C269.203 37.0016 269.762 36.2623 270.543 35.7328C271.324 35.1969 272.264 34.9289 273.361 34.9289C274.414 34.9289 275.328 35.1678 276.103 35.6456C276.884 36.1235 277.488 36.7821 277.914 37.6215C278.346 38.461 278.559 39.4231 278.553 40.5079V50H273.206V41.6315C273.213 40.8953 273.029 40.3174 272.654 39.8977C272.286 39.478 271.76 39.2681 271.076 39.2681C270.643 39.2681 270.262 39.365 269.933 39.5587C269.61 39.746 269.358 40.0172 269.177 40.3723C269.003 40.721 268.912 41.1407 268.906 41.6315ZM285.883 50.2325C284.934 50.2325 284.095 50.0775 283.365 49.7675C282.642 49.4511 282.074 48.9733 281.66 48.334C281.247 47.6948 281.041 46.8812 281.041 45.8932C281.041 45.0796 281.179 44.3855 281.457 43.8108C281.735 43.2296 282.122 42.755 282.619 42.387C283.117 42.0189 283.694 41.738 284.353 41.5443C285.018 41.3506 285.735 41.2247 286.503 41.1665C287.336 41.102 288.005 41.0245 288.508 40.9341C289.018 40.8372 289.386 40.7049 289.612 40.537C289.838 40.3626 289.951 40.1334 289.951 39.8493V39.8105C289.951 39.4231 289.803 39.1261 289.506 38.9194C289.209 38.7128 288.828 38.6095 288.363 38.6095C287.853 38.6095 287.436 38.7225 287.114 38.9485C286.797 39.168 286.607 39.507 286.542 39.9655H281.622C281.686 39.0615 281.974 38.2285 282.484 37.4666C283 36.6982 283.753 36.0847 284.741 35.6263C285.728 35.1613 286.962 34.9289 288.44 34.9289C289.506 34.9289 290.462 35.0548 291.307 35.3066C292.153 35.552 292.873 35.8975 293.467 36.343C294.061 36.7821 294.513 37.2987 294.823 37.8927C295.14 38.4803 295.298 39.1196 295.298 39.8105V50H290.3V47.9079H290.184C289.887 48.4632 289.525 48.912 289.099 49.2542C288.679 49.5964 288.198 49.845 287.656 50C287.12 50.155 286.529 50.2325 285.883 50.2325ZM287.627 46.8618C288.034 46.8618 288.415 46.7779 288.77 46.61C289.131 46.4421 289.425 46.1999 289.651 45.8835C289.877 45.5671 289.99 45.1829 289.99 44.7309V43.4911C289.848 43.5493 289.696 43.6041 289.535 43.6558C289.38 43.7075 289.212 43.7559 289.031 43.8011C288.857 43.8463 288.67 43.8883 288.47 43.927C288.276 43.9657 288.072 44.0013 287.859 44.0335C287.446 44.0981 287.107 44.2047 286.842 44.3532C286.584 44.4952 286.39 44.6728 286.261 44.8859C286.138 45.0925 286.077 45.325 286.077 45.5833C286.077 45.9965 286.222 46.3129 286.513 46.5325C286.804 46.752 287.175 46.8618 287.627 46.8618ZM307.27 35.1226V38.9969H297.468V35.1226H307.27ZM299.367 31.5582H304.713V45.2152C304.713 45.4218 304.749 45.5962 304.82 45.7382C304.891 45.8738 305.001 45.9772 305.149 46.0482C305.298 46.1128 305.488 46.145 305.721 46.145C305.882 46.145 306.069 46.1257 306.282 46.0869C306.502 46.0482 306.663 46.0159 306.767 45.9901L307.542 49.7482C307.303 49.8192 306.96 49.9064 306.515 50.0097C306.076 50.113 305.553 50.1808 304.946 50.2131C303.719 50.2777 302.689 50.1517 301.856 49.8353C301.023 49.5125 300.397 49.0056 299.977 48.3147C299.557 47.6237 299.354 46.7585 299.367 45.7189V31.5582Z" fill="#F60302"/>
<path d="M132.82 77.5643V70.0998H135.554C136.083 70.0998 136.522 70.1873 136.869 70.3623C137.217 70.5348 137.477 70.7693 137.649 71.0657C137.822 71.3597 137.908 71.6914 137.908 72.0607C137.908 72.3718 137.851 72.6342 137.737 72.848C137.623 73.0594 137.47 73.2295 137.278 73.3583C137.088 73.4846 136.879 73.577 136.651 73.6353V73.7082C136.899 73.7203 137.14 73.8005 137.376 73.9487C137.614 74.0945 137.811 74.3023 137.966 74.572C138.122 74.8417 138.2 75.1697 138.2 75.5561C138.2 75.9375 138.11 76.2802 137.93 76.5839C137.753 76.8852 137.478 77.1245 137.106 77.3019C136.735 77.4769 136.26 77.5643 135.681 77.5643H132.82ZM133.946 76.5985H135.572C136.111 76.5985 136.498 76.494 136.731 76.285C136.964 76.0761 137.081 75.8148 137.081 75.5014C137.081 75.2657 137.021 75.0494 136.902 74.8526C136.783 74.6558 136.613 74.4991 136.392 74.3824C136.173 74.2658 135.913 74.2075 135.612 74.2075H133.946V76.5985ZM133.946 73.3291H135.455C135.708 73.3291 135.935 73.2805 136.137 73.1833C136.341 73.0861 136.503 72.9501 136.622 72.7751C136.743 72.5977 136.804 72.3888 136.804 72.1482C136.804 71.8396 136.696 71.5808 136.479 71.3719C136.263 71.1629 135.931 71.0584 135.484 71.0584H133.946V73.3291ZM141.782 70.0998H143.062L145.011 73.4931H145.092L147.042 70.0998H148.321L145.613 74.6339V77.5643H144.49V74.6339L141.782 70.0998ZM157.377 71.0694V70.0998H163.154V71.0694H160.825V77.5643H159.703V71.0694H157.377ZM167.253 77.5643V70.0998H171.933V71.0694H168.38V73.3437H171.689V74.3096H168.38V76.5948H171.977V77.5643H167.253ZM176.891 77.5643H175.695L178.381 70.0998H179.683L182.369 77.5643H181.173L179.063 71.4557H179.005L176.891 77.5643ZM177.091 74.6412H180.969V75.5889H177.091V74.6412ZM186.269 70.0998H187.636L190.012 75.9023H190.1L192.476 70.0998H193.843V77.5643H192.772V72.1628H192.702L190.501 77.5534H189.612L187.41 72.1591H187.341V77.5643H186.269V70.0998ZM203.266 70.0998H204.545L206.495 73.4931H206.575L208.525 70.0998H209.805L207.097 74.6339V77.5643H205.974V74.6339L203.266 70.0998ZM213.559 77.5643H212.364L215.05 70.0998H216.351L219.037 77.5643H217.842L215.732 71.4557H215.673L213.559 77.5643ZM213.76 74.6412H217.638V75.5889H213.76V74.6412ZM226.949 72.0607C226.91 71.7157 226.75 71.4484 226.468 71.2589C226.186 71.0669 225.831 70.9709 225.404 70.9709C225.097 70.9709 224.833 71.0195 224.609 71.1167C224.385 71.2115 224.212 71.3427 224.088 71.5104C223.966 71.6756 223.906 71.8639 223.906 72.0753C223.906 72.2527 223.947 72.4058 224.029 72.5346C224.115 72.6633 224.225 72.7715 224.361 72.8589C224.5 72.944 224.648 73.0157 224.806 73.074C224.964 73.1299 225.116 73.176 225.261 73.2125L225.99 73.402C226.228 73.4603 226.473 73.5393 226.723 73.6389C226.973 73.7385 227.205 73.8698 227.419 74.0326C227.633 74.1954 227.805 74.397 227.937 74.6376C228.07 74.8781 228.137 75.1661 228.137 75.5014C228.137 75.9242 228.028 76.2996 227.809 76.6276C227.593 76.9557 227.278 77.2144 226.865 77.404C226.454 77.5935 225.958 77.6883 225.374 77.6883C224.816 77.6883 224.332 77.5996 223.924 77.4222C223.516 77.2448 223.196 76.9933 222.965 76.6677C222.734 76.3397 222.607 75.9509 222.582 75.5014H223.712C223.734 75.7711 223.822 75.9959 223.975 76.1757C224.13 76.3531 224.328 76.4855 224.569 76.573C224.812 76.658 225.078 76.7005 225.367 76.7005C225.685 76.7005 225.968 76.6507 226.216 76.5511C226.467 76.449 226.663 76.3081 226.807 76.1283C226.95 75.9461 227.022 75.7334 227.022 75.4905C227.022 75.2693 226.959 75.0883 226.832 74.9474C226.708 74.8065 226.539 74.6898 226.326 74.5975C226.114 74.5052 225.875 74.4238 225.608 74.3533L224.726 74.1127C224.128 73.9499 223.654 73.7106 223.304 73.3947C222.957 73.0788 222.783 72.6609 222.783 72.1409C222.783 71.7108 222.9 71.3354 223.133 71.0147C223.366 70.6939 223.682 70.4449 224.08 70.2675C224.479 70.0877 224.929 69.9978 225.429 69.9978C225.934 69.9978 226.38 70.0865 226.767 70.2639C227.155 70.4412 227.462 70.6854 227.685 70.9965C227.909 71.3051 228.025 71.6598 228.035 72.0607H226.949ZM232.305 77.5643V70.0998H233.432V73.3437H237.153V70.0998H238.283V77.5643H237.153V74.3096H233.432V77.5643H232.305Z" fill="#7A5046"/>
</svg>
