<svg width="371" height="101" viewBox="0 0 371 101" fill="none" xmlns="http://www.w3.org/2000/svg">
<rect y="0.731689" width="371" height="99.5366" rx="13.8748" fill="white"/>
<path d="M82.0625 31.925V26.7429H102.652V31.925H95.5267V50.4326H89.1879V31.925H82.0625ZM103.972 50.4326V32.6653H110.172V36.0429H110.357C110.681 34.7937 111.193 33.8799 111.895 33.3015C112.605 32.7231 113.434 32.434 114.382 32.434C114.66 32.434 114.933 32.4571 115.203 32.5034C115.481 32.5419 115.747 32.5998 116.002 32.6769V38.125C115.685 38.0171 115.296 37.9361 114.833 37.8821C114.371 37.8281 113.973 37.8012 113.642 37.8012C113.017 37.8012 112.454 37.9438 111.953 38.2291C111.459 38.5068 111.07 38.9 110.785 39.409C110.499 39.9102 110.357 40.5002 110.357 41.1788V50.4326H103.972ZM123.174 57.0953C122.441 57.0953 121.744 57.0374 121.08 56.9218C120.417 56.8138 119.835 56.6634 119.334 56.4706L120.722 51.9363C121.246 52.1214 121.724 52.2409 122.156 52.2949C122.596 52.3489 122.97 52.318 123.278 52.2023C123.594 52.0867 123.822 51.8669 123.961 51.543L124.099 51.2191L117.853 32.6653H124.516L127.384 44.9728H127.57L130.485 32.6653H137.193L130.716 51.9132C130.392 52.8925 129.922 53.7716 129.305 54.5505C128.695 55.3371 127.893 55.9578 126.899 56.4128C125.904 56.8678 124.662 57.0953 123.174 57.0953ZM152.863 50.4326H145.923L153.742 26.7429H162.533L170.353 50.4326H163.412L158.23 33.2668H158.045L152.863 50.4326ZM151.567 41.0862H164.615V45.8982H151.567V41.0862ZM173.286 50.4326V26.7429H183.511C185.269 26.7429 186.808 27.0629 188.126 27.703C189.445 28.343 190.471 29.2645 191.203 30.4675C191.936 31.6705 192.302 33.1126 192.302 34.7937C192.302 36.4902 191.924 37.9207 191.169 39.0851C190.421 40.2495 189.368 41.1287 188.011 41.7224C186.661 42.3162 185.084 42.6131 183.28 42.6131H177.172V37.6161H181.984C182.74 37.6161 183.384 37.5235 183.916 37.3385C184.456 37.1457 184.868 36.8411 185.154 36.4247C185.447 36.0082 185.593 35.4646 185.593 34.7937C185.593 34.1151 185.447 33.5637 185.154 33.1396C184.868 32.7077 184.456 32.3915 183.916 32.191C183.384 31.9828 182.74 31.8787 181.984 31.8787H179.717V50.4326H173.286ZM187.166 39.5594L193.089 50.4326H186.102L180.319 39.5594H187.166ZM202.836 50.4326V26.7429H219.493V31.925H209.267V35.9967H218.475V41.1788H209.267V50.4326H202.836ZM222.602 50.4326V32.6653H228.987V50.4326H222.602ZM225.795 30.8145C224.931 30.8145 224.191 30.5292 223.574 29.9586C222.957 29.3879 222.648 28.7016 222.648 27.8996C222.648 27.0976 222.957 26.4113 223.574 25.8406C224.191 25.27 224.931 24.9847 225.795 24.9847C226.666 24.9847 227.406 25.27 228.016 25.8406C228.632 26.4113 228.941 27.0976 228.941 27.8996C228.941 28.7016 228.632 29.3879 228.016 29.9586C227.406 30.5292 226.666 30.8145 225.795 30.8145ZM239.277 26.7429V50.4326H232.892V26.7429H239.277ZM253.777 32.6653V37.2922H242.071V32.6653H253.777ZM244.338 28.4086H250.724V44.7183C250.724 44.9651 250.766 45.1733 250.851 45.343C250.936 45.5049 251.067 45.6283 251.244 45.7131C251.421 45.7902 251.649 45.8288 251.927 45.8288C252.119 45.8288 252.343 45.8057 252.597 45.7594C252.86 45.7131 253.052 45.6746 253.176 45.6437L254.101 50.1318C253.816 50.2166 253.407 50.3207 252.875 50.4441C252.351 50.5675 251.726 50.6485 251.001 50.687C249.536 50.7641 248.306 50.6138 247.311 50.2359C246.316 49.8503 245.568 49.245 245.067 48.4199C244.566 47.5947 244.323 46.5614 244.338 45.3198V28.4086ZM265.357 50.7564C263.46 50.7564 261.825 50.394 260.452 49.6691C259.087 48.9365 258.035 47.8878 257.295 46.5228C256.562 45.1502 256.196 43.5076 256.196 41.5952C256.196 39.7599 256.566 38.1559 257.306 36.7832C258.046 35.4106 259.091 34.3426 260.441 33.5791C261.79 32.8157 263.383 32.434 265.218 32.434C266.56 32.434 267.774 32.6422 268.862 33.0586C269.949 33.475 270.878 34.0804 271.649 34.8746C272.421 35.6612 273.014 36.6174 273.431 37.7433C273.847 38.8692 274.055 40.1377 274.055 41.5489V43.0295H258.185V39.5131H268.179C268.172 39.0041 268.041 38.5569 267.786 38.1713C267.539 37.778 267.204 37.4734 266.78 37.2575C266.363 37.0339 265.889 36.922 265.357 36.922C264.84 36.922 264.366 37.0339 263.934 37.2575C263.502 37.4734 263.155 37.7742 262.893 38.1597C262.639 38.5453 262.504 38.9964 262.488 39.5131V43.3071C262.488 43.8778 262.608 44.3868 262.847 44.834C263.086 45.2813 263.429 45.6322 263.876 45.8866C264.324 46.1411 264.863 46.2684 265.496 46.2684C265.935 46.2684 266.336 46.2067 266.699 46.0833C267.069 45.9599 267.385 45.7825 267.647 45.5512C267.909 45.3121 268.102 45.0268 268.226 44.6952H274.055C273.855 45.9291 273.381 47.0009 272.633 47.9109C271.885 48.8131 270.894 49.5149 269.66 50.0161C268.434 50.5097 266.999 50.7564 265.357 50.7564ZM277.312 50.4326V32.6653H283.512V36.0429H283.698C284.021 34.7937 284.534 33.8799 285.236 33.3015C285.945 32.7231 286.774 32.434 287.723 32.434C288.001 32.434 288.274 32.4571 288.544 32.5034C288.822 32.5419 289.088 32.5998 289.342 32.6769V38.125C289.026 38.0171 288.637 37.9361 288.174 37.8821C287.711 37.8281 287.314 37.8012 286.983 37.8012C286.358 37.8012 285.795 37.9438 285.294 38.2291C284.8 38.5068 284.411 38.9 284.126 39.409C283.84 39.9102 283.698 40.5002 283.698 41.1788V50.4326H277.312Z" fill="#F60302"/>
<path d="M48.9287 72.7924C48.8898 72.4474 48.7294 72.1801 48.4476 71.9906C48.1657 71.7986 47.811 71.7026 47.3833 71.7026C47.0772 71.7026 46.8123 71.7512 46.5888 71.8484C46.3652 71.9432 46.1915 72.0744 46.0675 72.2421C45.9461 72.4073 45.8853 72.5956 45.8853 72.807C45.8853 72.9844 45.9266 73.1375 46.0092 73.2662C46.0943 73.395 46.2048 73.5032 46.3409 73.5906C46.4794 73.6757 46.6276 73.7474 46.7856 73.8057C46.9435 73.8616 47.0954 73.9077 47.2412 73.9442L47.9701 74.1337C48.2082 74.192 48.4524 74.271 48.7027 74.3706C48.953 74.4702 49.185 74.6014 49.3989 74.7642C49.6127 74.927 49.7852 75.1287 49.9164 75.3693C50.0501 75.6098 50.1169 75.8978 50.1169 76.2331C50.1169 76.6559 50.0075 77.0313 49.7889 77.3593C49.5726 77.6873 49.2579 77.9461 48.8449 78.1357C48.4342 78.3252 47.9373 78.4199 47.3542 78.4199C46.7953 78.4199 46.3117 78.3313 45.9035 78.1539C45.4953 77.9765 45.1758 77.725 44.945 77.3994C44.7141 77.0714 44.5866 76.6826 44.5623 76.2331H45.6921C45.714 76.5028 45.8015 76.7276 45.9546 76.9074C46.1101 77.0847 46.3081 77.2172 46.5487 77.3046C46.7916 77.3897 47.0577 77.4322 47.3469 77.4322C47.6652 77.4322 47.9482 77.3824 48.1961 77.2828C48.4464 77.1807 48.6432 77.0398 48.7865 76.86C48.9299 76.6777 49.0016 76.4651 49.0016 76.2221C49.0016 76.001 48.9384 75.82 48.8121 75.6791C48.6881 75.5381 48.5193 75.4215 48.3054 75.3292C48.094 75.2368 47.8547 75.1554 47.5874 75.085L46.7054 74.8444C46.1076 74.6816 45.6338 74.4423 45.2839 74.1264C44.9365 73.8105 44.7627 73.3926 44.7627 72.8726C44.7627 72.4425 44.8794 72.0671 45.1126 71.7464C45.3459 71.4256 45.6618 71.1766 46.0603 70.9992C46.4588 70.8194 46.9083 70.7295 47.4088 70.7295C47.9142 70.7295 48.3601 70.8182 48.7465 70.9956C49.1352 71.1729 49.4414 71.4171 49.6649 71.7281C49.8885 72.0367 50.0051 72.3915 50.0148 72.7924H48.9287ZM54.2852 78.296V70.8315H55.4115V74.0754H59.1328V70.8315H60.2626V78.296H59.1328V75.0412H55.4115V78.296H54.2852ZM65.3558 78.296H64.1604L66.8465 70.8315H68.1477L70.8339 78.296H69.6384L67.5281 72.1874H67.4698L65.3558 78.296ZM65.5563 75.3729H69.4343V76.3206H65.5563V75.3729ZM74.7344 78.296V70.8315H77.3951C77.9734 70.8315 78.4532 70.9312 78.8347 71.1304C79.2187 71.3297 79.5054 71.6054 79.6949 71.9578C79.8844 72.3077 79.9792 72.7122 79.9792 73.1715C79.9792 73.6283 79.8832 74.0304 79.6913 74.3779C79.5017 74.7229 79.215 74.9914 78.8311 75.1834C78.4496 75.3753 77.9697 75.4713 77.3914 75.4713H75.3759V74.5018H77.2894C77.6538 74.5018 77.9503 74.4496 78.1787 74.3451C78.4095 74.2406 78.5784 74.0887 78.6853 73.8895C78.7922 73.6902 78.8457 73.4509 78.8457 73.1715C78.8457 72.8896 78.791 72.6454 78.6817 72.4389C78.5747 72.2323 78.4059 72.0744 78.175 71.9651C77.9466 71.8533 77.6465 71.7974 77.2748 71.7974H75.8606V78.296H74.7344ZM78.4192 74.9283L80.2635 78.296H78.9805L77.1727 74.9283H78.4192ZM84.1721 78.296V70.8315H88.852V71.801H85.2984V74.0754H88.6078V75.0412H85.2984V77.3265H88.8957V78.296H84.1721ZM99.8439 70.8315V78.296H98.7177V70.8315H99.8439ZM110.331 70.8315V78.296H109.296L105.502 72.8216H105.433V78.296H104.307V70.8315H105.349L109.147 76.3133H109.216V70.8315H110.331ZM124.407 72.7924C124.368 72.4474 124.207 72.1801 123.926 71.9906C123.644 71.7986 123.289 71.7026 122.861 71.7026C122.555 71.7026 122.29 71.7512 122.067 71.8484C121.843 71.9432 121.669 72.0744 121.546 72.2421C121.424 72.4073 121.363 72.5956 121.363 72.807C121.363 72.9844 121.405 73.1375 121.487 73.2662C121.572 73.395 121.683 73.5032 121.819 73.5906C121.957 73.6757 122.106 73.7474 122.264 73.8057C122.422 73.8616 122.573 73.9077 122.719 73.9442L123.448 74.1337C123.686 74.192 123.93 74.271 124.181 74.3706C124.431 74.4702 124.663 74.6014 124.877 74.7642C125.091 74.927 125.263 75.1287 125.394 75.3693C125.528 75.6098 125.595 75.8978 125.595 76.2331C125.595 76.6559 125.486 77.0313 125.267 77.3593C125.051 77.6873 124.736 77.9461 124.323 78.1357C123.912 78.3252 123.415 78.4199 122.832 78.4199C122.273 78.4199 121.79 78.3313 121.382 78.1539C120.973 77.9765 120.654 77.725 120.423 77.3994C120.192 77.0714 120.065 76.6826 120.04 76.2331H121.17C121.192 76.5028 121.28 76.7276 121.433 76.9074C121.588 77.0847 121.786 77.2172 122.027 77.3046C122.27 77.3897 122.536 77.4322 122.825 77.4322C123.143 77.4322 123.426 77.3824 123.674 77.2828C123.924 77.1807 124.121 77.0398 124.265 76.86C124.408 76.6777 124.48 76.4651 124.48 76.2221C124.48 76.001 124.416 75.82 124.29 75.6791C124.166 75.5381 123.997 75.4215 123.783 75.3292C123.572 75.2368 123.333 75.1554 123.065 75.085L122.183 74.8444C121.586 74.6816 121.112 74.4423 120.762 74.1264C120.414 73.8105 120.241 73.3926 120.241 72.8726C120.241 72.4425 120.357 72.0671 120.591 71.7464C120.824 71.4256 121.14 71.1766 121.538 70.9992C121.937 70.8194 122.386 70.7295 122.887 70.7295C123.392 70.7295 123.838 70.8182 124.224 70.9956C124.613 71.1729 124.919 71.4171 125.143 71.7281C125.367 72.0367 125.483 72.3915 125.493 72.7924H124.407ZM136.247 74.5638C136.247 75.3608 136.101 76.046 135.81 76.6194C135.518 77.1904 135.119 77.6302 134.611 77.9388C134.105 78.245 133.531 78.3981 132.887 78.3981C132.24 78.3981 131.663 78.245 131.156 77.9388C130.65 77.6302 130.252 77.1892 129.96 76.6158C129.668 76.0423 129.523 75.3583 129.523 74.5638C129.523 73.7668 129.668 73.0828 129.96 72.5118C130.252 71.9383 130.65 71.4985 131.156 71.1924C131.663 70.8838 132.24 70.7295 132.887 70.7295C133.531 70.7295 134.105 70.8838 134.611 71.1924C135.119 71.4985 135.518 71.9383 135.81 72.5118C136.101 73.0828 136.247 73.7668 136.247 74.5638ZM135.132 74.5638C135.132 73.9563 135.034 73.4448 134.837 73.0293C134.642 72.6114 134.375 72.2955 134.035 72.0817C133.697 71.8654 133.314 71.7573 132.887 71.7573C132.457 71.7573 132.073 71.8654 131.735 72.0817C131.397 72.2955 131.13 72.6114 130.933 73.0293C130.739 73.4448 130.642 73.9563 130.642 74.5638C130.642 75.1712 130.739 75.6839 130.933 76.1019C131.13 76.5174 131.397 76.8333 131.735 77.0495C132.073 77.2633 132.457 77.3702 132.887 77.3702C133.314 77.3702 133.697 77.2633 134.035 77.0495C134.375 76.8333 134.642 76.5174 134.837 76.1019C135.034 75.6839 135.132 75.1712 135.132 74.5638ZM146.674 73.259H145.537C145.493 73.016 145.411 72.8021 145.292 72.6175C145.173 72.4328 145.027 72.2761 144.855 72.1473C144.682 72.0185 144.489 71.9213 144.275 71.8557C144.064 71.7901 143.839 71.7573 143.601 71.7573C143.171 71.7573 142.786 71.8654 142.446 72.0817C142.108 72.2979 141.841 72.615 141.644 73.033C141.45 73.4509 141.352 73.9612 141.352 74.5638C141.352 75.1712 141.45 75.6839 141.644 76.1019C141.841 76.5198 142.109 76.8357 142.449 77.0495C142.79 77.2633 143.172 77.3702 143.598 77.3702C143.833 77.3702 144.057 77.3387 144.268 77.2755C144.482 77.2099 144.675 77.1139 144.848 76.9875C145.02 76.8612 145.166 76.7069 145.285 76.5247C145.407 76.34 145.49 76.1286 145.537 75.8905L146.674 75.8941C146.613 76.261 146.495 76.5988 146.32 76.9074C146.148 77.2135 145.925 77.4784 145.653 77.7019C145.383 77.923 145.075 78.0943 144.727 78.2158C144.38 78.3373 144.001 78.3981 143.59 78.3981C142.944 78.3981 142.368 78.245 141.863 77.9388C141.357 77.6302 140.959 77.1892 140.667 76.6158C140.378 76.0423 140.233 75.3583 140.233 74.5638C140.233 73.7668 140.379 73.0828 140.671 72.5118C140.962 71.9383 141.361 71.4985 141.866 71.1924C142.372 70.8838 142.946 70.7295 143.59 70.7295C143.986 70.7295 144.356 70.7866 144.698 70.9008C145.043 71.0126 145.353 71.1778 145.628 71.3965C145.902 71.6127 146.129 71.8776 146.309 72.191C146.489 72.5021 146.611 72.858 146.674 73.259ZM151.97 70.8315V78.296H150.844V70.8315H151.97ZM157.063 78.296H155.868L158.554 70.8315H159.855L162.541 78.296H161.346L159.236 72.1874H159.177L157.063 78.296ZM157.264 75.3729H161.142V76.3206H157.264V75.3729ZM166.442 78.296V70.8315H167.568V77.3265H170.95V78.296H166.442ZM180.596 70.8315H181.963L184.34 76.634H184.427L186.803 70.8315H188.17V78.296H187.099V72.8945H187.029L184.828 78.2851H183.939L181.737 72.8908H181.668V78.296H180.596V70.8315ZM192.63 78.296V70.8315H197.31V71.801H193.756V74.0754H197.066V75.0412H193.756V77.3265H197.354V78.296H192.63ZM204.053 78.296H201.637V70.8315H204.13C204.861 70.8315 205.489 70.981 206.014 71.2798C206.539 71.5763 206.941 72.0027 207.221 72.5592C207.503 73.1132 207.644 73.7777 207.644 74.5528C207.644 75.3304 207.501 75.9986 207.217 76.5575C206.935 77.1163 206.527 77.5464 205.992 77.8477C205.458 78.1466 204.812 78.296 204.053 78.296ZM202.763 77.3119H203.991C204.56 77.3119 205.033 77.205 205.409 76.9912C205.786 76.7749 206.068 76.4627 206.255 76.0545C206.442 75.6438 206.536 75.1433 206.536 74.5528C206.536 73.9673 206.442 73.4703 206.255 73.0621C206.07 72.6539 205.794 72.3441 205.428 72.1327C205.061 71.9213 204.605 71.8156 204.061 71.8156H202.763V77.3119ZM212.993 70.8315V78.296H211.867V70.8315H212.993ZM218.086 78.296H216.89L219.577 70.8315H220.878L223.564 78.296H222.369L220.258 72.1874H220.2L218.086 78.296ZM218.286 75.3729H222.164V76.3206H218.286V75.3729ZM232.635 71.801V70.8315H238.412V71.801H236.083V78.296H234.961V71.801H232.635ZM242.26 78.296H241.064L243.75 70.8315H245.052L247.738 78.296H246.542L244.432 72.1874H244.374L242.26 78.296ZM242.46 75.3729H246.338V76.3206H242.46V75.3729ZM256.339 73.1897C256.269 72.9686 256.174 72.7706 256.055 72.5956C255.938 72.4182 255.798 72.2676 255.636 72.1437C255.473 72.0173 255.287 71.9213 255.078 71.8557C254.871 71.7901 254.644 71.7573 254.396 71.7573C253.976 71.7573 253.597 71.8654 253.259 72.0817C252.922 72.2979 252.654 72.615 252.457 73.033C252.263 73.4485 252.166 73.9575 252.166 74.5601C252.166 75.1652 252.264 75.6766 252.461 76.0946C252.658 76.5125 252.928 76.8296 253.27 77.0459C253.613 77.2621 254.003 77.3702 254.44 77.3702C254.846 77.3702 255.199 77.2876 255.501 77.1224C255.805 76.9572 256.039 76.7239 256.204 76.4226C256.372 76.1189 256.456 75.7617 256.456 75.351L256.747 75.4057H254.611V74.4763H257.545V75.3255C257.545 75.9524 257.412 76.4967 257.145 76.9584C256.88 77.4176 256.513 77.7724 256.044 78.0227C255.577 78.2729 255.043 78.3981 254.44 78.3981C253.765 78.3981 253.172 78.2426 252.662 77.9315C252.154 77.6205 251.758 77.1795 251.473 76.6085C251.189 76.035 251.047 75.3547 251.047 74.5674C251.047 73.9721 251.129 73.4375 251.295 72.9637C251.46 72.4899 251.692 72.0878 251.991 71.7573C252.292 71.4244 252.646 71.1705 253.052 70.9956C253.46 70.8182 253.906 70.7295 254.389 70.7295C254.792 70.7295 255.168 70.789 255.515 70.9081C255.865 71.0271 256.176 71.196 256.448 71.4147C256.723 71.6334 256.95 71.8934 257.13 72.1947C257.31 72.4936 257.431 72.8252 257.494 73.1897H256.339ZM266.849 73.1897C266.779 72.9686 266.684 72.7706 266.565 72.5956C266.448 72.4182 266.309 72.2676 266.146 72.1437C265.983 72.0173 265.797 71.9213 265.588 71.8557C265.382 71.7901 265.155 71.7573 264.907 71.7573C264.486 71.7573 264.107 71.8654 263.769 72.0817C263.432 72.2979 263.164 72.615 262.968 73.033C262.773 73.4485 262.676 73.9575 262.676 74.5601C262.676 75.1652 262.774 75.6766 262.971 76.0946C263.168 76.5125 263.438 76.8296 263.78 77.0459C264.123 77.2621 264.513 77.3702 264.95 77.3702C265.356 77.3702 265.71 77.2876 266.011 77.1224C266.315 76.9572 266.549 76.7239 266.714 76.4226C266.882 76.1189 266.966 75.7617 266.966 75.351L267.258 75.4057H265.122V74.4763H268.056V75.3255C268.056 75.9524 267.922 76.4967 267.655 76.9584C267.39 77.4176 267.023 77.7724 266.554 78.0227C266.088 78.2729 265.553 78.3981 264.95 78.3981C264.275 78.3981 263.682 78.2426 263.172 77.9315C262.664 77.6205 262.268 77.1795 261.984 76.6085C261.699 76.035 261.557 75.3547 261.557 74.5674C261.557 73.9721 261.64 73.4375 261.805 72.9637C261.97 72.4899 262.202 72.0878 262.501 71.7573C262.802 71.4244 263.156 71.1705 263.562 70.9956C263.97 70.8182 264.416 70.7295 264.899 70.7295C265.303 70.7295 265.678 70.789 266.026 70.9081C266.376 71.0271 266.687 71.196 266.959 71.4147C267.233 71.6334 267.46 71.8934 267.64 72.1947C267.82 72.4936 267.942 72.8252 268.005 73.1897H266.849ZM273.434 70.8315V78.296H272.308V70.8315H273.434ZM283.922 70.8315V78.296H282.886L279.092 72.8216H279.023V78.296H277.897V70.8315H278.939L282.737 76.3133H282.806V70.8315H283.922ZM293.439 73.1897C293.368 72.9686 293.273 72.7706 293.154 72.5956C293.038 72.4182 292.898 72.2676 292.735 72.1437C292.572 72.0173 292.387 71.9213 292.178 71.8557C291.971 71.7901 291.744 71.7573 291.496 71.7573C291.076 71.7573 290.697 71.8654 290.359 72.0817C290.021 72.2979 289.754 72.615 289.557 73.033C289.363 73.4485 289.265 73.9575 289.265 74.5601C289.265 75.1652 289.364 75.6766 289.561 76.0946C289.757 76.5125 290.027 76.8296 290.37 77.0459C290.712 77.2621 291.102 77.3702 291.54 77.3702C291.945 77.3702 292.299 77.2876 292.6 77.1224C292.904 76.9572 293.139 76.7239 293.304 76.4226C293.471 76.1189 293.555 75.7617 293.555 75.351L293.847 75.4057H291.711V74.4763H294.645V75.3255C294.645 75.9524 294.511 76.4967 294.244 76.9584C293.979 77.4176 293.612 77.7724 293.143 78.0227C292.677 78.2729 292.142 78.3981 291.54 78.3981C290.864 78.3981 290.271 78.2426 289.761 77.9315C289.253 77.6205 288.857 77.1795 288.573 76.6085C288.289 76.035 288.146 75.3547 288.146 74.5674C288.146 73.9721 288.229 73.4375 288.394 72.9637C288.56 72.4899 288.792 72.0878 289.09 71.7573C289.392 71.4244 289.745 71.1705 290.151 70.9956C290.559 70.8182 291.005 70.7295 291.489 70.7295C291.892 70.7295 292.267 70.789 292.615 70.9081C292.965 71.0271 293.276 71.196 293.548 71.4147C293.823 71.6334 294.05 71.8934 294.23 72.1947C294.409 72.4936 294.531 72.8252 294.594 73.1897H293.439ZM305.067 78.296H303.871L306.557 70.8315H307.858L310.545 78.296H309.349L307.239 72.1874H307.18L305.067 78.296ZM305.267 75.3729H309.145V76.3206H305.267V75.3729ZM318.456 72.7924C318.417 72.4474 318.257 72.1801 317.975 71.9906C317.693 71.7986 317.338 71.7026 316.911 71.7026C316.605 71.7026 316.34 71.7512 316.116 71.8484C315.893 71.9432 315.719 72.0744 315.595 72.2421C315.473 72.4073 315.413 72.5956 315.413 72.807C315.413 72.9844 315.454 73.1375 315.537 73.2662C315.622 73.395 315.732 73.5032 315.868 73.5906C316.007 73.6757 316.155 73.7474 316.313 73.8057C316.471 73.8616 316.623 73.9077 316.769 73.9442L317.498 74.1337C317.736 74.192 317.98 74.271 318.23 74.3706C318.48 74.4702 318.712 74.6014 318.926 74.7642C319.14 74.927 319.313 75.1287 319.444 75.3693C319.578 75.6098 319.644 75.8978 319.644 76.2331C319.644 76.6559 319.535 77.0313 319.316 77.3593C319.1 77.6873 318.785 77.9461 318.372 78.1357C317.962 78.3252 317.465 78.4199 316.882 78.4199C316.323 78.4199 315.839 78.3313 315.431 78.1539C315.023 77.9765 314.703 77.725 314.472 77.3994C314.242 77.0714 314.114 76.6826 314.09 76.2331H315.22C315.241 76.5028 315.329 76.7276 315.482 76.9074C315.638 77.0847 315.836 77.2172 316.076 77.3046C316.319 77.3897 316.585 77.4322 316.874 77.4322C317.193 77.4322 317.476 77.3824 317.724 77.2828C317.974 77.1807 318.171 77.0398 318.314 76.86C318.457 76.6777 318.529 76.4651 318.529 76.2221C318.529 76.001 318.466 75.82 318.339 75.6791C318.216 75.5381 318.047 75.4215 317.833 75.3292C317.621 75.2368 317.382 75.1554 317.115 75.085L316.233 74.8444C315.635 74.6816 315.161 74.4423 314.811 74.1264C314.464 73.8105 314.29 73.3926 314.29 72.8726C314.29 72.4425 314.407 72.0671 314.64 71.7464C314.873 71.4256 315.189 71.1766 315.588 70.9992C315.986 70.8194 316.436 70.7295 316.936 70.7295C317.442 70.7295 317.888 70.8182 318.274 70.9956C318.663 71.1729 318.969 71.4171 319.192 71.7281C319.416 72.0367 319.533 72.3915 319.542 72.7924H318.456ZM323.813 78.296V70.8315H328.493V71.801H324.939V74.0754H328.248V75.0412H324.939V77.3265H328.536V78.296H323.813ZM332.451 71.801V70.8315H338.228V71.801H335.899V78.296H334.777V71.801H332.451Z" fill="#7A5046"/>
</svg>
