<svg width="200" height="100" viewBox="0 0 200 100" fill="none" xmlns="http://www.w3.org/2000/svg">
<rect width="200" height="100" rx="12" fill="#282B38"/>
<path d="M61.2707 39.4705C61.2707 38.6243 61.4571 37.9072 61.83 37.3192C62.2172 36.7168 62.7264 36.265 63.3574 35.9639C63.9885 35.6483 64.6841 35.4906 65.4442 35.4906C66.1613 35.4906 66.7851 35.5838 67.3158 35.7703C67.8465 35.9567 68.3197 36.2005 68.7357 36.5017C69.1516 36.7885 69.5173 37.0969 69.8328 37.4267V33.0381C69.2448 32.5935 68.5922 32.235 67.8751 31.9625C67.1724 31.69 66.2688 31.5537 65.1645 31.5537C63.9168 31.5537 62.7694 31.7402 61.7224 32.1131C60.6755 32.4859 59.7791 33.0238 59.0333 33.7265C58.2875 34.4293 57.7067 35.2683 57.2908 36.2435C56.8892 37.2044 56.6884 38.2801 56.6884 39.4705C56.6884 40.6609 56.8892 41.7437 57.2908 42.7189C57.7067 43.6798 58.2875 44.5117 59.0333 45.2144C59.7791 45.9172 60.6755 46.455 61.7224 46.8279C62.7694 47.2008 63.9168 47.3872 65.1645 47.3872C66.2688 47.3872 67.1724 47.251 67.8751 46.9785C68.5922 46.6916 69.2448 46.3331 69.8328 45.9028V41.5142C69.5173 41.8441 69.1516 42.1596 68.7357 42.4608C68.3197 42.7476 67.8465 42.9843 67.3158 43.1707C66.7851 43.3571 66.1613 43.4504 65.4442 43.4504C64.6841 43.4504 63.9885 43.2998 63.3574 42.9986C62.7264 42.6831 62.2172 42.2313 61.83 41.6433C61.4571 41.0409 61.2707 40.3166 61.2707 39.4705ZM74.2662 40.9979H85.9907V37.2762H74.2662V40.9979ZM83.3661 31.9409V47H87.5396V31.9409H83.3661ZM73.2551 31.9409V47H77.4286V31.9409H73.2551ZM103.636 35.6627H107.853V47H112.026V35.6627H116.243V31.9409H103.636V35.6627Z" fill="white"/>
<path d="M122.457 40.3525L126.394 47H131.255L126.738 40.3525H122.457ZM118.369 31.9409V47H122.543V31.9409H118.369ZM121.037 35.4691H123.941C124.386 35.4691 124.759 35.5336 125.06 35.6627C125.361 35.7918 125.59 35.9854 125.748 36.2435C125.92 36.4873 126.006 36.7885 126.006 37.1471C126.006 37.5056 125.92 37.814 125.748 38.0721C125.59 38.3303 125.361 38.5239 125.06 38.653C124.759 38.7821 124.386 38.8466 123.941 38.8466H121.037V42.009H124.285C125.662 42.009 126.795 41.801 127.684 41.3851C128.588 40.9549 129.255 40.3597 129.685 39.5996C130.13 38.8251 130.352 37.9502 130.352 36.975C130.352 35.9854 130.13 35.1177 129.685 34.3719C129.255 33.6118 128.588 33.0166 127.684 32.5863C126.795 32.1561 125.662 31.9409 124.285 31.9409H121.037V35.4691ZM131.876 35.6627H136.093V47H140.266V35.6627H144.483V31.9409H131.876V35.6627Z" fill="#3378E0"/>
<path d="M96.8747 31.9906L90.4208 47.3569L96.1576 44.3828L96.8747 41.1608L97.8308 44.3828L103.329 47.1091L96.8747 31.9906Z" fill="#3F8CFF" stroke="#3F8CFF" stroke-width="0.614655"/>
<path d="M35.1307 70H34.1989L36.2926 64.1818H37.3068L39.4006 70H38.4688L36.8239 65.2386H36.7784L35.1307 70ZM35.2869 67.7216H38.3097V68.4602H35.2869V67.7216ZM45.0968 64.1818V70H44.29L41.3326 65.733H41.2786V70H40.4008V64.1818H41.2133L44.1735 68.4545H44.2275V64.1818H45.0968ZM51.5913 67.0909C51.5913 67.7121 51.4777 68.2462 51.2504 68.6932C51.0231 69.1383 50.7116 69.4811 50.3157 69.7216C49.9218 69.9602 49.4739 70.0795 48.972 70.0795C48.4682 70.0795 48.0184 69.9602 47.6226 69.7216C47.2286 69.4811 46.918 69.1373 46.6907 68.6903C46.4635 68.2434 46.3498 67.7102 46.3498 67.0909C46.3498 66.4697 46.4635 65.9366 46.6907 65.4915C46.918 65.0445 47.2286 64.7017 47.6226 64.4631C48.0184 64.2225 48.4682 64.1023 48.972 64.1023C49.4739 64.1023 49.9218 64.2225 50.3157 64.4631C50.7116 64.7017 51.0231 65.0445 51.2504 65.4915C51.4777 65.9366 51.5913 66.4697 51.5913 67.0909ZM50.722 67.0909C50.722 66.6174 50.6453 66.2187 50.4919 65.8949C50.3404 65.5691 50.132 65.3229 49.8669 65.1562C49.6036 64.9877 49.3053 64.9034 48.972 64.9034C48.6368 64.9034 48.3375 64.9877 48.0743 65.1562C47.811 65.3229 47.6027 65.5691 47.4493 65.8949C47.2977 66.2187 47.222 66.6174 47.222 67.0909C47.222 67.5644 47.2977 67.964 47.4493 68.2898C47.6027 68.6136 47.811 68.8598 48.0743 69.0284C48.3375 69.1951 48.6368 69.2784 48.972 69.2784C49.3053 69.2784 49.6036 69.1951 49.8669 69.0284C50.132 68.8598 50.3404 68.6136 50.4919 68.2898C50.6453 67.964 50.722 67.5644 50.722 67.0909ZM57.5418 64.1818V70H56.735L53.7776 65.733H53.7236V70H52.8458V64.1818H53.6583L56.6185 68.4545H56.6725V64.1818H57.5418ZM58.5335 64.1818H59.5306L61.0505 66.8267H61.113L62.6329 64.1818H63.6301L61.5193 67.7159V70H60.6443V67.7159L58.5335 64.1818ZM64.6189 64.1818H65.6842L67.5365 68.7045H67.6047L69.457 64.1818H70.5223V70H69.6871V65.7898H69.6331L67.9172 69.9915H67.224L65.5081 65.7869H65.4541V70H64.6189V64.1818ZM77.0126 67.0909C77.0126 67.7121 76.8989 68.2462 76.6716 68.6932C76.4444 69.1383 76.1328 69.4811 75.737 69.7216C75.343 69.9602 74.8951 70.0795 74.3932 70.0795C73.8894 70.0795 73.4396 69.9602 73.0438 69.7216C72.6499 69.4811 72.3393 69.1373 72.112 68.6903C71.8847 68.2434 71.7711 67.7102 71.7711 67.0909C71.7711 66.4697 71.8847 65.9366 72.112 65.4915C72.3393 65.0445 72.6499 64.7017 73.0438 64.4631C73.4396 64.2225 73.8894 64.1023 74.3932 64.1023C74.8951 64.1023 75.343 64.2225 75.737 64.4631C76.1328 64.7017 76.4444 65.0445 76.6716 65.4915C76.8989 65.9366 77.0126 66.4697 77.0126 67.0909ZM76.1432 67.0909C76.1432 66.6174 76.0665 66.2187 75.9131 65.8949C75.7616 65.5691 75.5533 65.3229 75.2881 65.1562C75.0249 64.9877 74.7266 64.9034 74.3932 64.9034C74.058 64.9034 73.7588 64.9877 73.4955 65.1562C73.2323 65.3229 73.0239 65.5691 72.8705 65.8949C72.719 66.2187 72.6432 66.6174 72.6432 67.0909C72.6432 67.5644 72.719 67.964 72.8705 68.2898C73.0239 68.6136 73.2323 68.8598 73.4955 69.0284C73.7588 69.1951 74.058 69.2784 74.3932 69.2784C74.7266 69.2784 75.0249 69.1951 75.2881 69.0284C75.5533 68.8598 75.7616 68.6136 75.9131 68.2898C76.0665 67.964 76.1432 67.5644 76.1432 67.0909ZM82.0085 64.1818H82.8892V68.0085C82.8892 68.4157 82.7935 68.7765 82.6022 69.0909C82.411 69.4034 82.142 69.6496 81.7954 69.8295C81.4488 70.0076 81.0426 70.0966 80.5767 70.0966C80.1127 70.0966 79.7074 70.0076 79.3608 69.8295C79.0142 69.6496 78.7452 69.4034 78.5539 69.0909C78.3627 68.7765 78.267 68.4157 78.267 68.0085V64.1818H79.1449V67.9375C79.1449 68.2008 79.2026 68.4347 79.3182 68.6392C79.4356 68.8438 79.6013 69.0047 79.8153 69.1222C80.0293 69.2377 80.2831 69.2955 80.5767 69.2955C80.8721 69.2955 81.1269 69.2377 81.3409 69.1222C81.5568 69.0047 81.7216 68.8438 81.8352 68.6392C81.9507 68.4347 82.0085 68.2008 82.0085 67.9375V64.1818ZM87.4987 65.7102C87.4684 65.4413 87.3434 65.233 87.1237 65.0852C86.9041 64.9356 86.6275 64.8608 86.2942 64.8608C86.0556 64.8608 85.8491 64.8987 85.6749 64.9744C85.5006 65.0483 85.3652 65.1506 85.2686 65.2812C85.1739 65.41 85.1266 65.5568 85.1266 65.7216C85.1266 65.8598 85.1588 65.9792 85.2232 66.0795C85.2895 66.1799 85.3756 66.2642 85.4817 66.3324C85.5897 66.3987 85.7052 66.4545 85.8283 66.5C85.9514 66.5436 86.0698 66.5795 86.1834 66.608L86.7516 66.7557C86.9372 66.8011 87.1275 66.8627 87.3226 66.9403C87.5177 67.018 87.6986 67.1203 87.8652 67.2472C88.0319 67.3741 88.1664 67.5312 88.2686 67.7188C88.3728 67.9062 88.4249 68.1307 88.4249 68.392C88.4249 68.7216 88.3397 69.0142 88.1692 69.2699C88.0006 69.5256 87.7554 69.7273 87.4334 69.875C87.1133 70.0227 86.726 70.0966 86.2715 70.0966C85.8359 70.0966 85.459 70.0275 85.1408 69.8892C84.8226 69.7509 84.5736 69.5549 84.3936 69.3011C84.2137 69.0455 84.1143 68.7424 84.0953 68.392H84.976C84.9931 68.6023 85.0612 68.7775 85.1806 68.9176C85.3018 69.0559 85.4561 69.1591 85.6436 69.2273C85.833 69.2936 86.0404 69.3267 86.2658 69.3267C86.5139 69.3267 86.7345 69.2879 86.9277 69.2102C87.1228 69.1307 87.2762 69.0208 87.388 68.8807C87.4997 68.7386 87.5556 68.5729 87.5556 68.3835C87.5556 68.2112 87.5063 68.0701 87.4078 67.9602C87.3112 67.8504 87.1796 67.7595 87.013 67.6875C86.8482 67.6155 86.6616 67.5521 86.4533 67.4972L85.7658 67.3097C85.2999 67.1828 84.9306 66.9962 84.6578 66.75C84.387 66.5038 84.2516 66.178 84.2516 65.7727C84.2516 65.4375 84.3425 65.1449 84.5243 64.8949C84.7061 64.6449 84.9523 64.4508 85.263 64.3125C85.5736 64.1723 85.9239 64.1023 86.3141 64.1023C86.708 64.1023 87.0556 64.1714 87.3567 64.3097C87.6597 64.4479 87.8984 64.6383 88.0726 64.8807C88.2469 65.1212 88.3378 65.3977 88.3453 65.7102H87.4987ZM93.0503 70L91.4366 64.1818H92.3599L93.4935 68.6875H93.5474L94.7264 64.1818H95.6412L96.8202 68.6903H96.8741L98.0048 64.1818H98.931L97.3145 70H96.431L95.2065 65.642H95.1611L93.9366 70H93.0503ZM99.8914 70V64.1818H103.539V64.9375H100.769V66.7102H103.349V67.4631H100.769V69.2443H103.573V70H99.8914ZM104.872 70V64.1818H107.002C107.415 64.1818 107.757 64.25 108.028 64.3864C108.299 64.5208 108.501 64.7036 108.636 64.9347C108.77 65.1638 108.838 65.4223 108.838 65.7102C108.838 65.9527 108.793 66.1572 108.704 66.3239C108.615 66.4886 108.496 66.6212 108.346 66.7216C108.198 66.8201 108.036 66.892 107.857 66.9375V66.9943C108.051 67.0038 108.239 67.0663 108.423 67.1818C108.608 67.2955 108.762 67.4574 108.883 67.6676C109.004 67.8778 109.065 68.1335 109.065 68.4347C109.065 68.732 108.995 68.9991 108.855 69.2358C108.716 69.4706 108.502 69.6572 108.213 69.7955C107.923 69.9318 107.553 70 107.102 70H104.872ZM105.75 69.2472H107.017C107.437 69.2472 107.738 69.1657 107.92 69.0028C108.102 68.84 108.193 68.6364 108.193 68.392C108.193 68.2083 108.146 68.0398 108.054 67.8864C107.961 67.733 107.828 67.6108 107.656 67.5199C107.485 67.429 107.283 67.3835 107.048 67.3835H105.75V69.2472ZM105.75 66.6989H106.926C107.123 66.6989 107.3 66.661 107.457 66.5852C107.616 66.5095 107.742 66.4034 107.835 66.267C107.929 66.1288 107.977 65.9659 107.977 65.7784C107.977 65.5379 107.893 65.3362 107.724 65.1733C107.555 65.0104 107.297 64.929 106.948 64.929H105.75V66.6989ZM116.481 66.0199C116.426 65.8475 116.352 65.6932 116.259 65.5568C116.168 65.4186 116.059 65.3011 115.932 65.2045C115.806 65.1061 115.661 65.0312 115.498 64.9801C115.337 64.929 115.16 64.9034 114.967 64.9034C114.639 64.9034 114.343 64.9877 114.08 65.1562C113.817 65.3248 113.609 65.572 113.455 65.8977C113.304 66.2216 113.228 66.6184 113.228 67.0881C113.228 67.5597 113.305 67.9583 113.458 68.2841C113.611 68.6098 113.822 68.857 114.089 69.0256C114.356 69.1941 114.66 69.2784 115.001 69.2784C115.317 69.2784 115.593 69.214 115.827 69.0852C116.064 68.9564 116.247 68.7746 116.376 68.5398C116.506 68.303 116.572 68.0246 116.572 67.7045L116.799 67.7472H115.134V67.0227H117.421V67.6847C117.421 68.1733 117.317 68.5975 117.109 68.9574C116.902 69.3153 116.616 69.5919 116.251 69.7869C115.887 69.982 115.47 70.0795 115.001 70.0795C114.474 70.0795 114.012 69.9583 113.614 69.7159C113.218 69.4735 112.91 69.1297 112.688 68.6847C112.467 68.2377 112.356 67.7074 112.356 67.0938C112.356 66.6297 112.42 66.2131 112.549 65.8438C112.678 65.4744 112.859 65.161 113.092 64.9034C113.326 64.6439 113.602 64.446 113.918 64.3097C114.236 64.1714 114.584 64.1023 114.961 64.1023C115.275 64.1023 115.568 64.1487 115.839 64.2415C116.111 64.3343 116.354 64.4659 116.566 64.6364C116.78 64.8068 116.957 65.0095 117.097 65.2443C117.237 65.4773 117.332 65.7358 117.381 66.0199H116.481ZM118.695 70V64.1818H120.769C121.22 64.1818 121.594 64.2595 121.891 64.4148C122.191 64.5701 122.414 64.785 122.562 65.0597C122.71 65.3324 122.784 65.6477 122.784 66.0057C122.784 66.3617 122.709 66.6752 122.559 66.946C122.411 67.215 122.188 67.4242 121.889 67.5739C121.591 67.7235 121.217 67.7983 120.766 67.7983H119.195V67.0426H120.687C120.971 67.0426 121.202 67.0019 121.38 66.9205C121.56 66.839 121.692 66.7206 121.775 66.5653C121.858 66.41 121.9 66.2235 121.9 66.0057C121.9 65.786 121.857 65.5956 121.772 65.4347C121.689 65.2737 121.557 65.1506 121.377 65.0653C121.199 64.9782 120.965 64.9347 120.676 64.9347H119.573V70H118.695ZM121.568 67.375L123.005 70H122.005L120.596 67.375H121.568ZM129.066 67.0909C129.066 67.7121 128.952 68.2462 128.725 68.6932C128.497 69.1383 128.186 69.4811 127.79 69.7216C127.396 69.9602 126.948 70.0795 126.446 70.0795C125.943 70.0795 125.493 69.9602 125.097 69.7216C124.703 69.4811 124.392 69.1373 124.165 68.6903C123.938 68.2434 123.824 67.7102 123.824 67.0909C123.824 66.4697 123.938 65.9366 124.165 65.4915C124.392 65.0445 124.703 64.7017 125.097 64.4631C125.493 64.2225 125.943 64.1023 126.446 64.1023C126.948 64.1023 127.396 64.2225 127.79 64.4631C128.186 64.7017 128.497 65.0445 128.725 65.4915C128.952 65.9366 129.066 66.4697 129.066 67.0909ZM128.196 67.0909C128.196 66.6174 128.12 66.2187 127.966 65.8949C127.815 65.5691 127.606 65.3229 127.341 65.1562C127.078 64.9877 126.78 64.9034 126.446 64.9034C126.111 64.9034 125.812 64.9877 125.549 65.1562C125.285 65.3229 125.077 65.5691 124.924 65.8949C124.772 66.2187 124.696 66.6174 124.696 67.0909C124.696 67.5644 124.772 67.964 124.924 68.2898C125.077 68.6136 125.285 68.8598 125.549 69.0284C125.812 69.1951 126.111 69.2784 126.446 69.2784C126.78 69.2784 127.078 69.1951 127.341 69.0284C127.606 68.8598 127.815 68.6136 127.966 68.2898C128.12 67.964 128.196 67.5644 128.196 67.0909ZM134.062 64.1818H134.942V68.0085C134.942 68.4157 134.847 68.7765 134.655 69.0909C134.464 69.4034 134.195 69.6496 133.849 69.8295C133.502 70.0076 133.096 70.0966 132.63 70.0966C132.166 70.0966 131.76 70.0076 131.414 69.8295C131.067 69.6496 130.798 69.4034 130.607 69.0909C130.416 68.7765 130.32 68.4157 130.32 68.0085V64.1818H131.198V67.9375C131.198 68.2008 131.256 68.4347 131.371 68.6392C131.489 68.8438 131.654 69.0047 131.868 69.1222C132.082 69.2377 132.336 69.2955 132.63 69.2955C132.925 69.2955 133.18 69.2377 133.394 69.1222C133.61 69.0047 133.775 68.8438 133.888 68.6392C134.004 68.4347 134.062 68.2008 134.062 67.9375V64.1818ZM136.379 70V64.1818H138.452C138.905 64.1818 139.28 64.2642 139.577 64.429C139.875 64.5937 140.097 64.8191 140.245 65.1051C140.393 65.3892 140.467 65.7093 140.467 66.0653C140.467 66.4233 140.392 66.7453 140.242 67.0312C140.094 67.3153 139.871 67.5407 139.572 67.7074C139.274 67.8722 138.9 67.9545 138.45 67.9545H137.023V67.2102H138.37C138.656 67.2102 138.888 67.161 139.066 67.0625C139.244 66.9621 139.375 66.8258 139.458 66.6534C139.541 66.4811 139.583 66.285 139.583 66.0653C139.583 65.8456 139.541 65.6506 139.458 65.4801C139.375 65.3097 139.243 65.1761 139.063 65.0795C138.885 64.983 138.65 64.9347 138.359 64.9347H137.256V70H136.379ZM148.765 66.0739H147.879C147.845 65.8845 147.781 65.7178 147.689 65.5739C147.596 65.4299 147.482 65.3078 147.348 65.2074C147.213 65.107 147.063 65.0312 146.896 64.9801C146.731 64.929 146.556 64.9034 146.37 64.9034C146.035 64.9034 145.735 64.9877 145.47 65.1562C145.207 65.3248 144.998 65.572 144.845 65.8977C144.693 66.2235 144.618 66.6212 144.618 67.0909C144.618 67.5644 144.693 67.964 144.845 68.2898C144.998 68.6155 145.208 68.8617 145.473 69.0284C145.738 69.1951 146.036 69.2784 146.368 69.2784C146.551 69.2784 146.726 69.2538 146.89 69.2045C147.057 69.1534 147.208 69.0786 147.342 68.9801C147.477 68.8816 147.59 68.7614 147.683 68.6193C147.778 68.4754 147.843 68.3106 147.879 68.125L148.765 68.1278C148.718 68.4138 148.626 68.6771 148.49 68.9176C148.355 69.1562 148.182 69.3627 147.97 69.5369C147.76 69.7093 147.519 69.8428 147.248 69.9375C146.977 70.0322 146.682 70.0795 146.362 70.0795C145.858 70.0795 145.409 69.9602 145.015 69.7216C144.621 69.4811 144.311 69.1373 144.084 68.6903C143.858 68.2434 143.745 67.7102 143.745 67.0909C143.745 66.4697 143.859 65.9366 144.086 65.4915C144.314 65.0445 144.624 64.7017 145.018 64.4631C145.412 64.2225 145.86 64.1023 146.362 64.1023C146.671 64.1023 146.959 64.1468 147.226 64.2358C147.495 64.3229 147.736 64.4517 147.95 64.6222C148.164 64.7907 148.341 64.9972 148.481 65.2415C148.621 65.4839 148.716 65.7614 148.765 66.0739ZM149.976 70V64.1818H150.854V66.7102H153.754V64.1818H154.635V70H153.754V67.4631H150.854V70H149.976ZM156.565 70H155.633L157.727 64.1818H158.741L160.835 70H159.903L158.258 65.2386H158.212L156.565 70ZM156.721 67.7216H159.744V68.4602H156.721V67.7216ZM160.86 64.9375V64.1818H165.363V64.9375H163.548V70H162.673V64.9375H160.86Z" fill="white"/>
</svg>
