<svg width="200" height="100" viewBox="0 0 200 100" fill="none" xmlns="http://www.w3.org/2000/svg">
<rect width="200" height="100" rx="12" fill="#441442"/>
<path d="M25.5852 70.0795C25.1951 70.0795 24.8466 70.0123 24.5398 69.8778C24.2348 69.7434 23.9934 69.5568 23.8153 69.3182C23.6392 69.0777 23.5445 68.7992 23.5312 68.483H24.4233C24.4347 68.6553 24.4924 68.8049 24.5966 68.9318C24.7027 69.0568 24.8409 69.1534 25.0114 69.2216C25.1818 69.2898 25.3712 69.3239 25.5795 69.3239C25.8087 69.3239 26.0114 69.2841 26.1875 69.2045C26.3655 69.125 26.5047 69.0142 26.6051 68.8722C26.7055 68.7282 26.7557 68.5625 26.7557 68.375C26.7557 68.1799 26.7055 68.0085 26.6051 67.8608C26.5066 67.7112 26.3617 67.5937 26.1705 67.5085C25.9811 67.4233 25.7519 67.3807 25.483 67.3807H24.9915V66.6648H25.483C25.6989 66.6648 25.8883 66.6259 26.0511 66.5483C26.2159 66.4706 26.3447 66.3627 26.4375 66.2244C26.5303 66.0843 26.5767 65.9205 26.5767 65.733C26.5767 65.553 26.536 65.3968 26.4545 65.2642C26.375 65.1297 26.2614 65.0246 26.1136 64.9489C25.9678 64.8731 25.7955 64.8352 25.5966 64.8352C25.4072 64.8352 25.2301 64.8703 25.0653 64.9403C24.9025 65.0085 24.7699 65.107 24.6676 65.2358C24.5653 65.3627 24.5104 65.5152 24.5028 65.6932H23.6534C23.6629 65.3788 23.7557 65.1023 23.9318 64.8636C24.1098 64.625 24.3447 64.4384 24.6364 64.304C24.928 64.1695 25.2519 64.1023 25.608 64.1023C25.9811 64.1023 26.303 64.1752 26.5739 64.321C26.8466 64.465 27.0568 64.6572 27.2045 64.8977C27.3542 65.1383 27.428 65.4015 27.4261 65.6875C27.428 66.0133 27.3371 66.2898 27.1534 66.517C26.9716 66.7443 26.7292 66.8968 26.4261 66.9744V67.0199C26.8125 67.0786 27.1117 67.232 27.3239 67.4801C27.5379 67.7282 27.6439 68.036 27.642 68.4034C27.6439 68.7235 27.5549 69.0104 27.375 69.2642C27.197 69.518 26.9536 69.7178 26.6449 69.8636C26.3362 70.0076 25.983 70.0795 25.5852 70.0795ZM28.9555 70V64.1818H31.0293C31.4801 64.1818 31.8541 64.2595 32.1515 64.4148C32.4507 64.5701 32.6742 64.785 32.8219 65.0597C32.9697 65.3324 33.0435 65.6477 33.0435 66.0057C33.0435 66.3617 32.9687 66.6752 32.8191 66.946C32.6714 67.215 32.4479 67.4242 32.1486 67.5739C31.8513 67.7235 31.4772 67.7983 31.0265 67.7983H29.4555V67.0426H30.9469C31.231 67.0426 31.4621 67.0019 31.6401 66.9205C31.82 66.839 31.9517 66.7206 32.035 66.5653C32.1183 66.41 32.16 66.2235 32.16 66.0057C32.16 65.786 32.1174 65.5956 32.0322 65.4347C31.9488 65.2737 31.8172 65.1506 31.6373 65.0653C31.4592 64.9782 31.2253 64.9347 30.9356 64.9347H29.8333V70H28.9555ZM31.8276 67.375L33.2651 70H32.2651L30.856 67.375H31.8276ZM36.1552 70H34.2717V64.1818H36.2149C36.785 64.1818 37.2745 64.2983 37.6836 64.5312C38.0927 64.7623 38.4062 65.0947 38.624 65.5284C38.8437 65.9602 38.9535 66.4782 38.9535 67.0824C38.9535 67.6884 38.8427 68.2093 38.6211 68.6449C38.4014 69.0805 38.0833 69.4157 37.6666 69.6506C37.2499 69.8835 36.7461 70 36.1552 70ZM35.1495 69.233H36.1069C36.5501 69.233 36.9185 69.1496 37.212 68.983C37.5056 68.8144 37.7253 68.571 37.8711 68.2528C38.017 67.9328 38.0899 67.5426 38.0899 67.0824C38.0899 66.6259 38.017 66.2386 37.8711 65.9205C37.7272 65.6023 37.5122 65.3608 37.2262 65.196C36.9403 65.0312 36.5852 64.9489 36.1609 64.9489H35.1495V69.233ZM42.4823 70V64.1818H44.5562C45.0088 64.1818 45.3838 64.2642 45.6812 64.429C45.9785 64.5937 46.2011 64.8191 46.3488 65.1051C46.4965 65.3892 46.5704 65.7093 46.5704 66.0653C46.5704 66.4233 46.4956 66.7453 46.346 67.0312C46.1982 67.3153 45.9748 67.5407 45.6755 67.7074C45.3782 67.8722 45.0041 67.9545 44.5534 67.9545H43.1272V67.2102H44.4738C44.7598 67.2102 44.9918 67.161 45.1698 67.0625C45.3479 66.9621 45.4785 66.8258 45.5619 66.6534C45.6452 66.4811 45.6869 66.285 45.6869 66.0653C45.6869 65.8456 45.6452 65.6506 45.5619 65.4801C45.4785 65.3097 45.3469 65.1761 45.167 65.0795C44.989 64.983 44.7541 64.9347 44.4624 64.9347H43.3602V70H42.4823ZM47.6338 70H46.702L48.7957 64.1818H49.8099L51.9037 70H50.9719L49.327 65.2386H49.2815L47.6338 70ZM47.7901 67.7216H50.8128V68.4602H47.7901V67.7216ZM52.9039 70V64.1818H54.9778C55.4285 64.1818 55.8026 64.2595 56.0999 64.4148C56.3992 64.5701 56.6226 64.785 56.7704 65.0597C56.9181 65.3324 56.992 65.6477 56.992 66.0057C56.992 66.3617 56.9171 66.6752 56.7675 66.946C56.6198 67.215 56.3963 67.4242 56.0971 67.5739C55.7997 67.7235 55.4257 67.7983 54.9749 67.7983H53.4039V67.0426H54.8954C55.1795 67.0426 55.4105 67.0019 55.5886 66.9205C55.7685 66.839 55.9001 66.7206 55.9834 66.5653C56.0668 66.41 56.1084 66.2235 56.1084 66.0057C56.1084 65.786 56.0658 65.5956 55.9806 65.4347C55.8973 65.2737 55.7656 65.1506 55.5857 65.0653C55.4077 64.9782 55.1738 64.9347 54.884 64.9347H53.7817V70H52.9039ZM55.7761 67.375L57.2136 70H56.2136L54.8045 67.375H55.7761ZM57.9332 64.9375V64.1818H62.4361V64.9375H60.6207V70H59.7457V64.9375H57.9332ZM63.1422 64.1818H64.1394L65.6593 66.8267H65.7218L67.2416 64.1818H68.2388L66.128 67.7159V70H65.253V67.7159L63.1422 64.1818ZM73.644 68.1136H74.5077L75.1156 68.9062L75.4026 69.2585L76.3713 70.5227H75.4736L74.8259 69.679L74.6043 69.3722L73.644 68.1136ZM76.5588 67.0909C76.5588 67.7121 76.4452 68.2462 76.2179 68.6932C75.9906 69.1383 75.6791 69.4811 75.2832 69.7216C74.8893 69.9602 74.4414 70.0795 73.9395 70.0795C73.4357 70.0795 72.9859 69.9602 72.5901 69.7216C72.1961 69.4811 71.8855 69.1373 71.6582 68.6903C71.431 68.2434 71.3173 67.7102 71.3173 67.0909C71.3173 66.4697 71.431 65.9366 71.6582 65.4915C71.8855 65.0445 72.1961 64.7017 72.5901 64.4631C72.9859 64.2225 73.4357 64.1023 73.9395 64.1023C74.4414 64.1023 74.8893 64.2225 75.2832 64.4631C75.6791 64.7017 75.9906 65.0445 76.2179 65.4915C76.4452 65.9366 76.5588 66.4697 76.5588 67.0909ZM75.6895 67.0909C75.6895 66.6174 75.6128 66.2187 75.4594 65.8949C75.3079 65.5691 75.0995 65.3229 74.8344 65.1562C74.5711 64.9877 74.2728 64.9034 73.9395 64.9034C73.6043 64.9034 73.305 64.9877 73.0418 65.1562C72.7785 65.3229 72.5702 65.5691 72.4168 65.8949C72.2652 66.2187 72.1895 66.6174 72.1895 67.0909C72.1895 67.5644 72.2652 67.964 72.4168 68.2898C72.5702 68.6136 72.7785 68.8598 73.0418 69.0284C73.305 69.1951 73.6043 69.2784 73.9395 69.2784C74.2728 69.2784 74.5711 69.1951 74.8344 69.0284C75.0995 68.8598 75.3079 68.6136 75.4594 68.2898C75.6128 67.964 75.6895 67.5644 75.6895 67.0909ZM81.5547 64.1818H82.4354V68.0085C82.4354 68.4157 82.3398 68.7765 82.1485 69.0909C81.9572 69.4034 81.6883 69.6496 81.3417 69.8295C80.9951 70.0076 80.5888 70.0966 80.1229 70.0966C79.6589 70.0966 79.2536 70.0076 78.907 69.8295C78.5604 69.6496 78.2915 69.4034 78.1002 69.0909C77.9089 68.7765 77.8133 68.4157 77.8133 68.0085V64.1818H78.6911V67.9375C78.6911 68.2008 78.7489 68.4347 78.8644 68.6392C78.9818 68.8438 79.1475 69.0047 79.3616 69.1222C79.5756 69.2377 79.8294 69.2955 80.1229 69.2955C80.4184 69.2955 80.6731 69.2377 80.8871 69.1222C81.103 69.0047 81.2678 68.8438 81.3814 68.6392C81.497 68.4347 81.5547 68.2008 81.5547 67.9375V64.1818ZM88.9257 67.0909C88.9257 67.7121 88.812 68.2462 88.5848 68.6932C88.3575 69.1383 88.0459 69.4811 87.6501 69.7216C87.2562 69.9602 86.8083 70.0795 86.3064 70.0795C85.8026 70.0795 85.3528 69.9602 84.9569 69.7216C84.563 69.4811 84.2524 69.1373 84.0251 68.6903C83.7978 68.2434 83.6842 67.7102 83.6842 67.0909C83.6842 66.4697 83.7978 65.9366 84.0251 65.4915C84.2524 65.0445 84.563 64.7017 84.9569 64.4631C85.3528 64.2225 85.8026 64.1023 86.3064 64.1023C86.8083 64.1023 87.2562 64.2225 87.6501 64.4631C88.0459 64.7017 88.3575 65.0445 88.5848 65.4915C88.812 65.9366 88.9257 66.4697 88.9257 67.0909ZM88.0564 67.0909C88.0564 66.6174 87.9797 66.2187 87.8262 65.8949C87.6747 65.5691 87.4664 65.3229 87.2012 65.1562C86.938 64.9877 86.6397 64.9034 86.3064 64.9034C85.9711 64.9034 85.6719 64.9877 85.4086 65.1562C85.1454 65.3229 84.937 65.5691 84.7836 65.8949C84.6321 66.2187 84.5564 66.6174 84.5564 67.0909C84.5564 67.5644 84.6321 67.964 84.7836 68.2898C84.937 68.6136 85.1454 68.8598 85.4086 69.0284C85.6719 69.1951 85.9711 69.2784 86.3064 69.2784C86.6397 69.2784 86.938 69.1951 87.2012 69.0284C87.4664 68.8598 87.6747 68.6136 87.8262 68.2898C87.9797 67.964 88.0564 67.5644 88.0564 67.0909ZM89.6432 64.9375V64.1818H94.1461V64.9375H92.3307V70H91.4557V64.9375H89.6432ZM95.3011 70V64.1818H98.9488V64.9375H96.1789V66.7102H98.7585V67.4631H96.1789V69.2443H98.9829V70H95.3011ZM103.698 70L102.084 64.1818H103.007L104.141 68.6875H104.195L105.374 64.1818H106.289L107.468 68.6903H107.522L108.652 64.1818H109.578L107.962 70H107.078L105.854 65.642H105.809L104.584 70H103.698ZM110.539 70V64.1818H114.187V64.9375H111.417V66.7102H113.996V67.4631H111.417V69.2443H114.221V70H110.539ZM115.519 70V64.1818H117.65C118.063 64.1818 118.405 64.25 118.675 64.3864C118.946 64.5208 119.149 64.7036 119.283 64.9347C119.418 65.1638 119.485 65.4223 119.485 65.7102C119.485 65.9527 119.441 66.1572 119.352 66.3239C119.263 66.4886 119.143 66.6212 118.994 66.7216C118.846 66.8201 118.683 66.892 118.505 66.9375V66.9943C118.698 67.0038 118.887 67.0663 119.07 67.1818C119.256 67.2955 119.409 67.4574 119.531 67.6676C119.652 67.8778 119.712 68.1335 119.712 68.4347C119.712 68.732 119.642 68.9991 119.502 69.2358C119.364 69.4706 119.15 69.6572 118.86 69.7955C118.57 69.9318 118.2 70 117.749 70H115.519ZM116.397 69.2472H117.664C118.085 69.2472 118.386 69.1657 118.567 69.0028C118.749 68.84 118.84 68.6364 118.84 68.392C118.84 68.2083 118.794 68.0398 118.701 67.8864C118.608 67.733 118.476 67.6108 118.303 67.5199C118.133 67.429 117.93 67.3835 117.695 67.3835H116.397V69.2472ZM116.397 66.6989H117.573C117.77 66.6989 117.947 66.661 118.104 66.5852C118.264 66.5095 118.389 66.4034 118.482 66.267C118.577 66.1288 118.624 65.9659 118.624 65.7784C118.624 65.5379 118.54 65.3362 118.371 65.1733C118.203 65.0104 117.944 64.929 117.596 64.929H116.397V66.6989ZM123.682 70H122.75L124.844 64.1818H125.858L127.952 70H127.02L125.375 65.2386H125.33L123.682 70ZM123.838 67.7216H126.861V68.4602H123.838V67.7216ZM128.952 70V64.1818H131.026C131.479 64.1818 131.854 64.2642 132.151 64.429C132.449 64.5937 132.671 64.8191 132.819 65.1051C132.967 65.3892 133.04 65.7093 133.04 66.0653C133.04 66.4233 132.966 66.7453 132.816 67.0312C132.668 67.3153 132.445 67.5407 132.146 67.7074C131.848 67.8722 131.474 67.9545 131.023 67.9545H129.597V67.2102H130.944C131.23 67.2102 131.462 67.161 131.64 67.0625C131.818 66.9621 131.949 66.8258 132.032 66.6534C132.115 66.4811 132.157 66.285 132.157 66.0653C132.157 65.8456 132.115 65.6506 132.032 65.4801C131.949 65.3097 131.817 65.1761 131.637 65.0795C131.459 64.983 131.224 64.9347 130.932 64.9347H129.83V70H128.952ZM134.23 70V64.1818H136.303C136.756 64.1818 137.131 64.2642 137.428 64.429C137.726 64.5937 137.948 64.8191 138.096 65.1051C138.244 65.3892 138.318 65.7093 138.318 66.0653C138.318 66.4233 138.243 66.7453 138.093 67.0312C137.945 67.3153 137.722 67.5407 137.423 67.7074C137.125 67.8722 136.751 67.9545 136.301 67.9545H134.874V67.2102H136.221C136.507 67.2102 136.739 67.161 136.917 67.0625C137.095 66.9621 137.226 66.8258 137.309 66.6534C137.392 66.4811 137.434 66.285 137.434 66.0653C137.434 65.8456 137.392 65.6506 137.309 65.4801C137.226 65.3097 137.094 65.1761 136.914 65.0795C136.736 64.983 136.501 64.9347 136.21 64.9347H135.107V70H134.23ZM139.507 70V64.1818H140.385V69.2443H143.021V70H139.507ZM145.06 64.1818V70H144.182V64.1818H145.06ZM151.331 66.0739H150.445C150.411 65.8845 150.347 65.7178 150.254 65.5739C150.161 65.4299 150.048 65.3078 149.913 65.2074C149.779 65.107 149.628 65.0312 149.462 64.9801C149.297 64.929 149.122 64.9034 148.936 64.9034C148.601 64.9034 148.301 64.9877 148.036 65.1562C147.772 65.3248 147.564 65.572 147.411 65.8977C147.259 66.2235 147.183 66.6212 147.183 67.0909C147.183 67.5644 147.259 67.964 147.411 68.2898C147.564 68.6155 147.773 68.8617 148.038 69.0284C148.304 69.1951 148.602 69.2784 148.933 69.2784C149.117 69.2784 149.291 69.2538 149.456 69.2045C149.623 69.1534 149.773 69.0786 149.908 68.9801C150.042 68.8816 150.156 68.7614 150.249 68.6193C150.343 68.4754 150.409 68.3106 150.445 68.125L151.331 68.1278C151.284 68.4138 151.192 68.6771 151.055 68.9176C150.921 69.1562 150.748 69.3627 150.536 69.5369C150.325 69.7093 150.085 69.8428 149.814 69.9375C149.543 70.0322 149.248 70.0795 148.928 70.0795C148.424 70.0795 147.975 69.9602 147.581 69.7216C147.187 69.4811 146.876 69.1373 146.649 68.6903C146.424 68.2434 146.311 67.7102 146.311 67.0909C146.311 66.4697 146.425 65.9366 146.652 65.4915C146.879 65.0445 147.19 64.7017 147.584 64.4631C147.978 64.2225 148.426 64.1023 148.928 64.1023C149.236 64.1023 149.524 64.1468 149.791 64.2358C150.06 64.3229 150.302 64.4517 150.516 64.6222C150.73 64.7907 150.907 64.9972 151.047 65.2415C151.187 65.4839 151.282 65.7614 151.331 66.0739ZM152.994 70H152.062L154.156 64.1818H155.17L157.264 70H156.332L154.687 65.2386H154.642L152.994 70ZM153.15 67.7216H156.173V68.4602H153.15V67.7216ZM157.289 64.9375V64.1818H161.792V64.9375H159.977V70H159.102V64.9375H157.289ZM163.825 64.1818V70H162.947V64.1818H163.825ZM170.318 67.0909C170.318 67.7121 170.204 68.2462 169.977 68.6932C169.749 69.1383 169.438 69.4811 169.042 69.7216C168.648 69.9602 168.2 70.0795 167.698 70.0795C167.194 70.0795 166.745 69.9602 166.349 69.7216C165.955 69.4811 165.644 69.1373 165.417 68.6903C165.19 68.2434 165.076 67.7102 165.076 67.0909C165.076 66.4697 165.19 65.9366 165.417 65.4915C165.644 65.0445 165.955 64.7017 166.349 64.4631C166.745 64.2225 167.194 64.1023 167.698 64.1023C168.2 64.1023 168.648 64.2225 169.042 64.4631C169.438 64.7017 169.749 65.0445 169.977 65.4915C170.204 65.9366 170.318 66.4697 170.318 67.0909ZM169.448 67.0909C169.448 66.6174 169.372 66.2187 169.218 65.8949C169.067 65.5691 168.858 65.3229 168.593 65.1562C168.33 64.9877 168.032 64.9034 167.698 64.9034C167.363 64.9034 167.064 64.9877 166.801 65.1562C166.537 65.3229 166.329 65.5691 166.176 65.8949C166.024 66.2187 165.948 66.6174 165.948 67.0909C165.948 67.5644 166.024 67.964 166.176 68.2898C166.329 68.6136 166.537 68.8598 166.801 69.0284C167.064 69.1951 167.363 69.2784 167.698 69.2784C168.032 69.2784 168.33 69.1951 168.593 69.0284C168.858 68.8598 169.067 68.6136 169.218 68.2898C169.372 67.964 169.448 67.5644 169.448 67.0909ZM176.268 64.1818V70H175.461L172.504 65.733H172.45V70H171.572V64.1818H172.385L175.345 68.4545H175.399V64.1818H176.268Z" fill="white"/>
<path d="M53.0986 37.4705C53.0986 36.653 53.2635 35.9359 53.5934 35.3192C53.9232 34.7025 54.3822 34.222 54.9702 33.8778C55.5582 33.5193 56.2395 33.34 57.0139 33.34C57.9461 33.34 58.7278 33.5623 59.3588 34.0069C59.9899 34.4372 60.4632 35.0037 60.7787 35.7064C61.1085 36.4092 61.2735 37.1693 61.2735 37.9868C61.2735 38.8043 61.1085 39.507 60.7787 40.0951C60.4632 40.6831 60.0114 41.142 59.4234 41.4719C58.8353 41.7874 58.1469 41.9452 57.3581 41.9452C56.5837 41.9452 55.8737 41.7659 55.2283 41.4073C54.583 41.0488 54.0666 40.5325 53.6794 39.8584C53.2922 39.1843 53.0986 38.3884 53.0986 37.4705ZM48.6884 37.4705C48.6884 38.6465 48.8892 39.7293 49.2908 40.7189C49.7067 41.7085 50.2875 42.569 51.0333 43.3005C51.7934 44.0176 52.6755 44.5769 53.6794 44.9785C54.6977 45.3657 55.8092 45.5593 57.0139 45.5593C58.2186 45.5593 59.3158 45.3657 60.3054 44.9785C61.3093 44.5769 62.177 44.0176 62.9085 43.3005C63.6399 42.569 64.1992 41.7085 64.5865 40.7189C64.9737 39.7293 65.1673 38.6465 65.1673 37.4705C65.1673 36.2801 64.9665 35.2044 64.565 34.2435C64.1634 33.2683 63.5969 32.4364 62.8654 31.748C62.1483 31.0453 61.2878 30.5075 60.2839 30.1346C59.2943 29.7473 58.2043 29.5537 57.0139 29.5537C55.8522 29.5537 54.7694 29.7473 53.7655 30.1346C52.7615 30.5075 51.8723 31.0453 51.0979 31.748C50.3377 32.4364 49.7425 33.2683 49.3123 34.2435C48.8964 35.2044 48.6884 36.2801 48.6884 37.4705ZM55.5295 38.5461L62.8439 45.3442H67.211L59.7245 38.5461H55.5295ZM69.0131 29.9409V40.052C69.0131 41.0703 69.178 41.938 69.5079 42.6551C69.8378 43.3722 70.2895 43.9602 70.8632 44.4192C71.4512 44.8638 72.1253 45.1936 72.8854 45.4087C73.6599 45.6239 74.4774 45.7314 75.3379 45.7314C76.2128 45.7314 77.0302 45.6239 77.7904 45.4087C78.5505 45.1936 79.2246 44.8638 79.8126 44.4192C80.4006 43.9602 80.8595 43.3722 81.1894 42.6551C81.5193 41.938 81.6842 41.0703 81.6842 40.052V29.9409H77.5107V39.7078C77.5107 40.3962 77.3314 40.9556 76.9729 41.3858C76.6143 41.8017 76.0693 42.0097 75.3379 42.0097C74.6208 42.0097 74.083 41.8017 73.7244 41.3858C73.3659 40.9556 73.1866 40.3962 73.1866 39.7078V29.9409H69.0131ZM88.7546 37.4705C88.7546 36.653 88.9123 35.9359 89.2279 35.3192C89.5434 34.7025 89.988 34.222 90.5617 33.8778C91.1353 33.5193 91.8094 33.34 92.5839 33.34C93.4014 33.34 94.0898 33.5193 94.6491 33.8778C95.2228 34.222 95.6602 34.7025 95.9614 35.3192C96.2626 35.9359 96.4132 36.653 96.4132 37.4705C96.4132 38.2736 96.2554 38.9907 95.9399 39.6218C95.6244 40.2385 95.1798 40.7261 94.6061 41.0846C94.0467 41.4289 93.3727 41.601 92.5839 41.601C91.8094 41.601 91.1353 41.4289 90.5617 41.0846C89.988 40.7261 89.5434 40.2385 89.2279 39.6218C88.9123 38.9907 88.7546 38.2736 88.7546 37.4705ZM84.3444 37.4705C84.3444 38.6465 84.5452 39.7293 84.9468 40.7189C85.3484 41.7085 85.9149 42.569 86.6463 43.3005C87.3921 44.0176 88.2669 44.5769 89.2709 44.9785C90.2748 45.3657 91.3791 45.5593 92.5839 45.5593C93.7886 45.5593 94.8929 45.3657 95.8969 44.9785C96.9151 44.5769 97.79 44.0176 98.5214 43.3005C99.2529 42.569 99.8194 41.7085 100.221 40.7189C100.623 39.7293 100.823 38.6465 100.823 37.4705C100.823 36.2801 100.615 35.2044 100.199 34.2435C99.7979 33.2683 99.2242 32.4364 98.4784 31.748C97.7326 31.0453 96.8578 30.5075 95.8538 30.1346C94.8642 29.7473 93.7743 29.5537 92.5839 29.5537C91.4222 29.5537 90.3394 29.7473 89.3354 30.1346C88.3458 30.5075 87.4781 31.0453 86.7324 31.748C85.9866 32.4364 85.3985 33.2683 84.9683 34.2435C84.5524 35.2044 84.3444 36.2801 84.3444 37.4705ZM101.443 33.6627H105.66V45H109.833V33.6627H114.05V29.9409H101.443V33.6627ZM119.016 45H126.61V41.6225H119.016V45ZM119.016 33.3185H126.61V29.9409H119.016V33.3185ZM119.016 38.8043H126.18V35.5343H119.016V38.8043ZM116.176 29.9409V45H120.177V29.9409H116.176Z" fill="white"/>
<path d="M128.743 35.1041V38.1159H136.035V35.1041H128.743ZM135.605 31.662L137.025 28.9944C136.867 28.851 136.659 28.686 136.401 28.4996C136.143 28.3131 135.82 28.1554 135.433 28.0263C135.06 27.8972 134.594 27.8327 134.035 27.8327C133.146 27.8327 132.407 27.9833 131.819 28.2845C131.231 28.5856 130.786 29.0087 130.485 29.5537C130.198 30.0844 130.055 30.7154 130.055 31.4469V45H133.604V32.4364C133.604 32.1353 133.648 31.8915 133.734 31.705C133.82 31.5042 133.934 31.3608 134.078 31.2748C134.236 31.1744 134.422 31.1242 134.637 31.1242C134.824 31.1242 134.996 31.1744 135.153 31.2748C135.311 31.3608 135.462 31.4899 135.605 31.662ZM150.327 40.2241C150.327 39.1628 150.105 38.2736 149.66 37.5565C149.216 36.8251 148.642 36.2729 147.939 35.9C147.236 35.5271 146.498 35.3407 145.723 35.3407C145.221 35.3407 144.741 35.3765 144.282 35.4483C143.823 35.52 143.393 35.6562 142.991 35.857L143.787 33.5551H149.94V29.9409H140.754L138.624 38.8258C139.14 38.5963 139.657 38.4242 140.173 38.3095C140.704 38.1947 141.213 38.1159 141.7 38.0728C142.188 38.0298 142.611 38.0083 142.97 38.0083C143.414 38.0083 143.845 38.0657 144.26 38.1804C144.691 38.2808 145.042 38.4529 145.315 38.6967C145.601 38.9405 145.745 39.2776 145.745 39.7078C145.745 40.1237 145.63 40.4679 145.401 40.7404C145.171 41.0129 144.848 41.2066 144.433 41.3213C144.031 41.436 143.543 41.4934 142.97 41.4934C142.654 41.4934 142.288 41.4504 141.873 41.3643C141.457 41.2639 141.012 41.1133 140.539 40.9125C140.08 40.7118 139.621 40.4536 139.162 40.1381L137.785 43.7092C138.287 43.9961 138.839 44.2614 139.442 44.5052C140.058 44.7347 140.747 44.9211 141.507 45.0645C142.267 45.2223 143.106 45.3012 144.024 45.3012C144.755 45.3012 145.487 45.2008 146.218 45C146.964 44.8136 147.645 44.5195 148.262 44.118C148.879 43.7021 149.373 43.1714 149.746 42.526C150.133 41.8806 150.327 41.1133 150.327 40.2241Z" fill="#FF27F6"/>
</svg>
