<svg width="371" height="100" viewBox="0 0 371 100" fill="none" xmlns="http://www.w3.org/2000/svg">
<rect width="371" height="99.5366" rx="13.8748" fill="white"/>
<path d="M76.6304 59V39.1635H85.1926C86.6649 39.1635 87.9531 39.454 89.0573 40.0352C90.1614 40.6163 91.0202 41.4332 91.6337 42.4857C92.2471 43.5382 92.5538 44.7683 92.5538 46.176C92.5538 47.5966 92.2374 48.8267 91.6046 49.8663C90.9783 50.9059 90.0969 51.7066 88.9604 52.2684C87.8304 52.8301 86.5099 53.111 84.9989 53.111H79.8848V48.9268H83.9141C84.5469 48.9268 85.0861 48.817 85.5316 48.5974C85.9836 48.3714 86.3291 48.0518 86.568 47.6385C86.8134 47.2253 86.9361 46.7378 86.9361 46.176C86.9361 45.6078 86.8134 45.1235 86.568 44.7231C86.3291 44.3163 85.9836 44.0064 85.5316 43.7933C85.0861 43.5737 84.5469 43.464 83.9141 43.464H82.0157V59H76.6304ZM95.1527 59V44.1226H100.344V46.9509H100.499C100.77 45.9048 101.2 45.1396 101.788 44.6553C102.382 44.171 103.076 43.9289 103.87 43.9289C104.102 43.9289 104.332 43.9483 104.558 43.987C104.79 44.0193 105.013 44.0677 105.226 44.1323V48.6943C104.961 48.6039 104.635 48.5361 104.248 48.4909C103.86 48.4457 103.528 48.4231 103.25 48.4231C102.727 48.4231 102.256 48.5426 101.836 48.7815C101.423 49.0139 101.097 49.3433 100.858 49.7694C100.619 50.1891 100.499 50.6831 100.499 51.2514V59H95.1527ZM113.84 59.2712C112.225 59.2712 110.844 58.9516 109.694 58.3123C108.545 57.6666 107.663 56.769 107.05 55.6197C106.437 54.4638 106.13 53.1239 106.13 51.6C106.13 50.0761 106.437 48.7395 107.05 47.5901C107.663 46.4343 108.545 45.5367 109.694 44.8975C110.844 44.2517 112.225 43.9289 113.84 43.9289C115.454 43.9289 116.836 44.2517 117.985 44.8975C119.135 45.5367 120.016 46.4343 120.629 47.5901C121.243 48.7395 121.55 50.0761 121.55 51.6C121.55 53.1239 121.243 54.4638 120.629 55.6197C120.016 56.769 119.135 57.6666 117.985 58.3123C116.836 58.9516 115.454 59.2712 113.84 59.2712ZM113.878 55.3194C114.33 55.3194 114.721 55.1676 115.05 54.8642C115.38 54.5607 115.635 54.128 115.816 53.5663C115.996 53.0045 116.087 52.3362 116.087 51.5613C116.087 50.78 115.996 50.1117 115.816 49.5563C115.635 48.9946 115.38 48.5619 115.05 48.2584C114.721 47.955 114.33 47.8032 113.878 47.8032C113.401 47.8032 112.991 47.955 112.648 48.2584C112.306 48.5619 112.045 48.9946 111.864 49.5563C111.683 50.1117 111.593 50.78 111.593 51.5613C111.593 52.3362 111.683 53.0045 111.864 53.5663C112.045 54.128 112.306 54.5607 112.648 54.8642C112.991 55.1676 113.401 55.3194 113.878 55.3194ZM124.265 44.1226H129.611V59.5037C129.611 60.808 129.337 61.8283 128.788 62.5644C128.246 63.3005 127.484 63.8203 126.502 64.1238C125.521 64.4273 124.375 64.579 123.064 64.579C122.87 64.579 122.692 64.5758 122.531 64.5693C122.363 64.5629 122.179 64.5532 121.979 64.5403V60.5885C122.108 60.6014 122.221 60.6111 122.318 60.6175C122.408 60.624 122.502 60.6272 122.599 60.6272C123.238 60.6272 123.674 60.5271 123.906 60.327C124.145 60.1332 124.265 59.8201 124.265 59.3874V44.1226ZM126.938 42.5729C126.215 42.5729 125.595 42.334 125.078 41.8561C124.562 41.3783 124.304 40.8036 124.304 40.132C124.304 39.4605 124.562 38.8858 125.078 38.408C125.595 37.9301 126.215 37.6912 126.938 37.6912C127.668 37.6912 128.288 37.9301 128.798 38.408C129.314 38.8858 129.573 39.4605 129.573 40.132C129.573 40.8036 129.314 41.3783 128.798 41.8561C128.288 42.334 127.668 42.5729 126.938 42.5729ZM140.01 59.2712C138.421 59.2712 137.052 58.9677 135.903 58.3607C134.76 57.7473 133.879 56.8691 133.259 55.7262C132.645 54.5768 132.339 53.2014 132.339 51.6C132.339 50.0632 132.649 48.7201 133.268 47.5707C133.888 46.4214 134.763 45.527 135.893 44.8878C137.023 44.2485 138.357 43.9289 139.894 43.9289C141.017 43.9289 142.034 44.1032 142.945 44.4519C143.855 44.8006 144.633 45.3075 145.279 45.9726C145.925 46.6312 146.422 47.4319 146.77 48.3747C147.119 49.3174 147.293 50.3796 147.293 51.5613V52.8011H134.005V49.8566H142.373C142.367 49.4304 142.257 49.0559 142.044 48.733C141.837 48.4037 141.556 48.1487 141.201 47.9679C140.852 47.7806 140.455 47.687 140.01 47.687C139.577 47.687 139.18 47.7806 138.818 47.9679C138.457 48.1487 138.166 48.4005 137.947 48.7234C137.734 49.0462 137.621 49.424 137.608 49.8566V53.0335C137.608 53.5114 137.708 53.9376 137.908 54.3121C138.108 54.6866 138.395 54.9804 138.77 55.1935C139.144 55.4066 139.596 55.5131 140.126 55.5131C140.494 55.5131 140.83 55.4615 141.133 55.3581C141.443 55.2548 141.708 55.1063 141.928 54.9126C142.147 54.7124 142.308 54.4735 142.412 54.1958H147.293C147.126 55.229 146.728 56.1265 146.102 56.8885C145.476 57.644 144.646 58.2316 143.613 58.6513C142.586 59.0646 141.385 59.2712 140.01 59.2712ZM157.188 59.2712C155.574 59.2712 154.192 58.9516 153.043 58.3123C151.893 57.6666 151.012 56.769 150.398 55.6197C149.785 54.4638 149.478 53.1239 149.478 51.6C149.478 50.0761 149.785 48.7395 150.398 47.5901C151.012 46.4343 151.893 45.5367 153.043 44.8975C154.192 44.2517 155.574 43.9289 157.188 43.9289C158.648 43.9289 159.91 44.1936 160.975 44.7231C162.047 45.2462 162.877 45.9887 163.465 46.9509C164.052 47.9065 164.349 49.0301 164.356 50.3215H159.397C159.326 49.5402 159.1 48.9461 158.719 48.5393C158.344 48.1261 157.86 47.9194 157.266 47.9194C156.801 47.9194 156.394 48.055 156.045 48.3262C155.697 48.591 155.425 48.9946 155.232 49.537C155.038 50.0729 154.941 50.7477 154.941 51.5613C154.941 52.3749 155.038 53.0529 155.232 53.5953C155.425 54.1313 155.697 54.5348 156.045 54.806C156.394 55.0708 156.801 55.2032 157.266 55.2032C157.66 55.2032 158.008 55.1128 158.312 54.932C158.615 54.7447 158.861 54.4735 159.048 54.1184C159.242 53.7568 159.358 53.3177 159.397 52.8011H164.356C164.336 54.1119 164.036 55.2548 163.455 56.2299C162.874 57.1984 162.05 57.9475 160.985 58.477C159.926 59.0065 158.66 59.2712 157.188 59.2712ZM175.979 44.1226V47.9969H166.177V44.1226H175.979ZM168.076 40.5582H173.422V54.2152C173.422 54.4218 173.458 54.5962 173.529 54.7382C173.6 54.8738 173.71 54.9772 173.858 55.0482C174.007 55.1128 174.197 55.145 174.43 55.145C174.591 55.145 174.778 55.1257 174.991 55.0869C175.211 55.0482 175.372 55.0159 175.476 54.9901L176.251 58.7482C176.012 58.8192 175.669 58.9064 175.224 59.0097C174.785 59.113 174.262 59.1808 173.655 59.2131C172.428 59.2777 171.398 59.1517 170.565 58.8353C169.732 58.5125 169.106 58.0056 168.686 57.3147C168.266 56.6237 168.063 55.7585 168.076 54.7189V40.5582ZM192.146 48.9655H187.225C187.199 48.662 187.093 48.4005 186.906 48.181C186.718 47.9614 186.476 47.7935 186.179 47.6773C185.889 47.5546 185.566 47.4933 185.211 47.4933C184.752 47.4933 184.358 47.5772 184.029 47.7451C183.7 47.913 183.538 48.1519 183.545 48.4618C183.538 48.6814 183.632 48.8848 183.826 49.072C184.026 49.2593 184.41 49.4046 184.978 49.5079L188 50.0503C189.524 50.328 190.657 50.7961 191.4 51.4548C192.149 52.1069 192.527 52.9819 192.533 54.0796C192.527 55.1386 192.21 56.0587 191.584 56.8401C190.964 57.6149 190.115 58.2154 189.036 58.6416C187.965 59.0613 186.741 59.2712 185.366 59.2712C183.093 59.2712 181.314 58.8063 180.029 57.8764C178.75 56.9466 178.037 55.7197 177.888 54.1958H183.196C183.267 54.6672 183.499 55.032 183.893 55.2903C184.294 55.5422 184.797 55.6681 185.404 55.6681C185.895 55.6681 186.299 55.5841 186.615 55.4163C186.938 55.2484 187.103 55.0094 187.109 54.6995C187.103 54.4154 186.96 54.1894 186.683 54.0215C186.412 53.8536 185.985 53.718 185.404 53.6147L182.77 53.1498C181.252 52.885 180.116 52.3814 179.36 51.6388C178.605 50.8962 178.23 49.9405 178.237 48.7718C178.23 47.7386 178.502 46.8637 179.05 46.1469C179.606 45.4237 180.397 44.8749 181.423 44.5003C182.457 44.1194 183.68 43.9289 185.094 43.9289C187.245 43.9289 188.94 44.3744 190.179 45.2655C191.426 46.1566 192.081 47.3899 192.146 48.9655ZM201.029 59V39.1635H206.375V46.7184H206.453C206.647 46.2147 206.931 45.753 207.305 45.3333C207.68 44.9072 208.145 44.5681 208.7 44.3163C209.255 44.058 209.901 43.9289 210.637 43.9289C211.619 43.9289 212.552 44.1904 213.436 44.7134C214.327 45.2365 215.051 46.0598 215.606 47.1833C216.168 48.3069 216.449 49.7662 216.449 51.5613C216.449 53.2789 216.181 54.7027 215.645 55.8327C215.115 56.9628 214.405 57.8054 213.514 58.3607C212.629 58.9161 211.657 59.1937 210.598 59.1937C209.901 59.1937 209.278 59.0807 208.729 58.8547C208.187 58.6223 207.722 58.3091 207.334 57.9152C206.953 57.5148 206.66 57.0628 206.453 56.5592H206.337V59H201.029ZM206.259 51.5613C206.259 52.2845 206.353 52.9109 206.54 53.4403C206.734 53.9634 207.005 54.3702 207.354 54.6608C207.709 54.9449 208.132 55.0869 208.623 55.0869C209.113 55.0869 209.53 54.9481 209.872 54.6704C210.221 54.3863 210.485 53.9828 210.666 53.4597C210.853 52.9302 210.947 52.2974 210.947 51.5613C210.947 50.8252 210.853 50.1956 210.666 49.6726C210.485 49.1431 210.221 48.7395 209.872 48.4618C209.53 48.1777 209.113 48.0357 208.623 48.0357C208.132 48.0357 207.709 48.1777 207.354 48.4618C207.005 48.7395 206.734 49.1431 206.54 49.6726C206.353 50.1956 206.259 50.8252 206.259 51.5613ZM222.033 64.579C221.42 64.579 220.835 64.5306 220.28 64.4337C219.725 64.3433 219.237 64.2174 218.818 64.056L219.98 60.2592C220.419 60.4141 220.819 60.5142 221.181 60.5594C221.549 60.6046 221.862 60.5788 222.12 60.4819C222.385 60.3851 222.576 60.201 222.692 59.9298L222.808 59.6586L217.578 44.1226H223.157L225.559 54.4283H225.714L228.155 44.1226H233.772L228.348 60.2398C228.077 61.0598 227.683 61.796 227.167 62.4481C226.657 63.1068 225.985 63.6266 225.152 64.0076C224.319 64.3885 223.279 64.579 222.033 64.579ZM260.26 46.6022H254.797C254.758 46.1502 254.655 45.7401 254.487 45.3721C254.325 45.004 254.099 44.6876 253.809 44.4229C253.525 44.1517 253.179 43.945 252.772 43.803C252.366 43.6545 251.904 43.5802 251.387 43.5802C250.483 43.5802 249.718 43.7997 249.092 44.2388C248.472 44.6779 248.001 45.3075 247.678 46.1276C247.361 46.9476 247.203 47.9324 247.203 49.0817C247.203 50.2957 247.365 51.3127 247.687 52.1328C248.017 52.9464 248.491 53.5598 249.111 53.9731C249.731 54.3799 250.477 54.5833 251.349 54.5833C251.846 54.5833 252.291 54.5219 252.685 54.3992C253.079 54.2701 253.421 54.0861 253.712 53.8472C254.003 53.6082 254.238 53.3209 254.419 52.9851C254.606 52.6429 254.732 52.2587 254.797 51.8325L260.26 51.8712C260.195 52.7107 259.959 53.5663 259.553 54.438C259.146 55.3033 258.568 56.1039 257.819 56.8401C257.076 57.5697 256.156 58.1573 255.058 58.6029C253.961 59.0484 252.685 59.2712 251.232 59.2712C249.411 59.2712 247.778 58.8805 246.331 58.0992C244.891 57.3179 243.752 56.1685 242.912 54.6511C242.079 53.1336 241.663 51.2772 241.663 49.0817C241.663 46.8734 242.089 45.0137 242.941 43.5027C243.794 41.9853 244.943 40.8391 246.39 40.0642C247.836 39.2829 249.45 38.8923 251.232 38.8923C252.485 38.8923 253.638 39.0634 254.69 39.4056C255.743 39.7478 256.666 40.2483 257.46 40.9069C258.255 41.5591 258.894 42.363 259.378 43.3187C259.862 44.2743 260.156 45.3688 260.26 46.6022ZM273.941 45.3624C273.89 44.7167 273.648 44.213 273.215 43.8514C272.789 43.4898 272.14 43.309 271.268 43.309C270.713 43.309 270.258 43.3768 269.902 43.5124C269.554 43.6415 269.296 43.8191 269.128 44.0451C268.96 44.2711 268.873 44.5294 268.866 44.82C268.853 45.0589 268.895 45.2752 268.992 45.4689C269.095 45.6562 269.257 45.8273 269.476 45.9823C269.696 46.1308 269.977 46.2664 270.319 46.3891C270.661 46.5118 271.068 46.6215 271.539 46.7184L273.167 47.0671C274.264 47.2995 275.204 47.6063 275.985 47.9872C276.767 48.3682 277.406 48.817 277.903 49.3336C278.4 49.8437 278.765 50.4184 278.997 51.0576C279.236 51.6969 279.359 52.3943 279.366 53.1498C279.359 54.4541 279.033 55.5583 278.387 56.4623C277.742 57.3663 276.818 58.054 275.617 58.5254C274.423 58.9968 272.986 59.2325 271.307 59.2325C269.583 59.2325 268.078 58.9774 266.793 58.4673C265.515 57.9572 264.52 57.1726 263.81 56.1136C263.106 55.0482 262.751 53.6857 262.745 52.0262H267.859C267.891 52.6332 268.043 53.1433 268.314 53.5566C268.585 53.9698 268.966 54.283 269.457 54.4961C269.954 54.7092 270.545 54.8157 271.229 54.8157C271.804 54.8157 272.285 54.7447 272.673 54.6026C273.06 54.4606 273.354 54.2636 273.554 54.0118C273.754 53.76 273.858 53.4726 273.864 53.1498C273.858 52.8463 273.757 52.5815 273.564 52.3555C273.376 52.1231 273.067 51.9164 272.634 51.7356C272.201 51.5484 271.617 51.374 270.881 51.2126L268.905 50.7864C267.148 50.4055 265.763 49.7694 264.75 48.8783C263.742 47.9808 263.242 46.7571 263.248 45.2074C263.242 43.9483 263.578 42.8473 264.256 41.9046C264.94 40.9553 265.886 40.216 267.094 39.6865C268.308 39.157 269.699 38.8923 271.268 38.8923C272.87 38.8923 274.255 39.1602 275.423 39.6962C276.592 40.2321 277.493 40.9876 278.126 41.9627C278.765 42.9312 279.088 44.0645 279.094 45.3624H273.941ZM281.96 59V39.1635H296.256V43.5027H287.345V46.9121H295.52V51.2514H287.345V54.6608H296.217V59H281.96Z" fill="#F60302"/>
</svg>
